<svg viewBox="0 0 27 16" fill="none" xmlns="http://www.w3.org/2000/svg">
<path fill-rule="evenodd" clip-rule="evenodd" d="M0 15.7645H27V0H0V15.7645Z" fill="#FEFEFE"/>
<path fill-rule="evenodd" clip-rule="evenodd" d="M18.0767 5.69604L26.9999 0.698992V0H26.3832L16.2118 5.69604H18.0767Z" fill="#BE2836"/>
<path fill-rule="evenodd" clip-rule="evenodd" d="M17.6533 10.3808L27.0001 15.6083V14.5673L19.5256 10.3808H17.6533Z" fill="#BE2836"/>
<path fill-rule="evenodd" clip-rule="evenodd" d="M0 1.19721L7.99449 5.69604H9.85938L0 0.156158V1.19721Z" fill="#BE2836"/>
<path fill-rule="evenodd" clip-rule="evenodd" d="M9.43588 10.3808L0 15.6678V15.7645H1.70143L11.3008 10.3808H9.43588Z" fill="#BE2836"/>
<path fill-rule="evenodd" clip-rule="evenodd" d="M25.15 0H15.6992V5.30192L25.15 0Z" fill="#363571"/>
<path fill-rule="evenodd" clip-rule="evenodd" d="M11.5237 0H2.11011L11.5237 5.30192V0Z" fill="#363571"/>
<path fill-rule="evenodd" clip-rule="evenodd" d="M27 5.69603V2.08209L20.588 5.69603H27Z" fill="#363571"/>
<path fill-rule="evenodd" clip-rule="evenodd" d="M27 13.9575V10.3808H20.588L27 13.9575Z" fill="#363571"/>
<path fill-rule="evenodd" clip-rule="evenodd" d="M2.64502 15.7645H11.5237V10.7823L2.64502 15.7645Z" fill="#363571"/>
<path fill-rule="evenodd" clip-rule="evenodd" d="M15.6992 15.7645H24.6076L15.6992 10.7823V15.7645Z" fill="#363571"/>
<path fill-rule="evenodd" clip-rule="evenodd" d="M0 10.3808V14.1211L6.63484 10.3808H0Z" fill="#363571"/>
<path fill-rule="evenodd" clip-rule="evenodd" d="M0 5.69604H6.63484L0 1.95569V5.69604Z" fill="#363571"/>
<path fill-rule="evenodd" clip-rule="evenodd" d="M12.3558 0V6.63298H0V9.44382H12.3558V15.7645H14.8597V9.44382H27V6.63298H14.8597V0H12.3558Z" fill="#BE2836"/>
</svg>
