<svg viewBox="0 0 50 50" fill="none" xmlns="http://www.w3.org/2000/svg">
<path d="M26.0451 28.1518C26.0451 26.428 25.3418 24.8627 24.2124 23.7333C23.083 22.6039 21.5177 21.9005 19.7939 21.9005C18.0652 21.9005 16.5048 22.6039 15.3705 23.7333C14.2411 24.8627 13.5427 26.428 13.5427 28.1518C13.5427 29.8805 14.2411 31.4458 15.3705 32.5702C16.5048 33.7046 18.0652 34.403 19.7939 34.403C21.5177 34.403 23.083 33.7046 24.2124 32.5702H24.2173C25.3467 31.4458 26.0451 29.8805 26.0451 28.1518ZM25.6835 22.2621C27.1943 23.768 28.1256 25.8534 28.1256 28.1518C28.1256 30.4501 27.1943 32.5306 25.6835 34.0414V34.0463C24.1777 35.5522 22.0923 36.4884 19.7939 36.4884C17.4906 36.4884 15.4101 35.5522 13.8993 34.0463V34.0414C12.3935 32.5306 11.4573 30.4501 11.4573 28.1518C11.4573 25.8534 12.3935 23.768 13.8993 22.2621C15.4101 20.7513 17.4906 19.8201 19.7939 19.8201C22.0923 19.8201 24.1777 20.7513 25.6835 22.2621Z" fill="#9EE75E"/>
<path d="M47.9196 30.7573C47.9196 29.7517 47.5085 28.8403 46.8496 28.1765C46.1908 27.5177 45.2794 27.1115 44.2739 27.1115C43.2683 27.1115 42.3519 27.5177 41.6931 28.1765C41.0343 28.8403 40.6281 29.7517 40.6281 30.7573C40.6281 31.7628 41.0343 32.6742 41.6931 33.333C42.3519 33.9918 43.2634 34.403 44.2739 34.403C45.2794 34.403 46.1908 33.9918 46.8496 33.333C47.5085 32.6742 47.9196 31.7628 47.9196 30.7573ZM48.3258 26.7053C49.361 27.7406 50 29.1771 50 30.7573C50 32.3374 49.361 33.7689 48.3258 34.8092C47.2855 35.8444 45.854 36.4884 44.2739 36.4884C42.6888 36.4884 41.2572 35.8444 40.2219 34.8092C39.1867 33.7689 38.5427 32.3374 38.5427 30.7573C38.5427 29.1771 39.1867 27.7406 40.2219 26.7053C41.2572 25.6701 42.6888 25.0261 44.2739 25.0261C45.854 25.0261 47.2855 25.6701 48.3258 26.7053Z" fill="#9EE75E"/>
<path d="M21.8744 28.1517C21.8744 27.5771 21.6416 27.057 21.2651 26.6805C20.8887 26.3041 20.3686 26.0712 19.794 26.0712C19.2194 26.0712 18.6943 26.3041 18.3178 26.6805H18.3129C17.9414 27.052 17.7086 27.5721 17.7086 28.1517C17.7086 28.7263 17.9414 29.2513 18.3178 29.6278C18.6943 30.0043 19.2144 30.2371 19.794 30.2371C20.3686 30.2371 20.8936 30.0043 21.2651 29.6278C21.6416 29.2513 21.8744 28.7263 21.8744 28.1517ZM22.7413 25.2044C23.4942 25.9623 23.9598 27.0025 23.9598 28.1517C23.9598 29.3009 23.4942 30.3461 22.7413 31.099L22.7363 31.094C21.9784 31.8519 20.9382 32.3175 19.794 32.3175C18.6448 32.3175 17.6045 31.8519 16.8467 31.094V31.099C16.0937 30.3461 15.6232 29.3009 15.6232 28.1517C15.6232 27.0074 16.0937 25.9623 16.8467 25.2093V25.2044C17.5996 24.4515 18.6398 23.9858 19.794 23.9858C20.9432 23.9858 21.9834 24.4515 22.7413 25.2044Z" fill="#9EE75E"/>
<path d="M44.794 26.0712V22.4651C44.794 21.9549 44.6107 21.4843 44.2986 21.1178C43.9915 20.7512 43.5556 20.4937 43.0504 20.4094C41.8863 20.2113 40.6975 20.0677 39.4888 19.9686C38.3 19.8695 37.1013 19.82 35.8976 19.82H33.3367H32.3955L32.3014 18.8788L31.2612 8.46176L33.3268 8.25867L34.2729 17.7346H35.8976C37.1459 17.7346 38.404 17.7891 39.6622 17.8931C40.8956 17.9922 42.1439 18.1507 43.3921 18.3587C44.3977 18.5271 45.2695 19.0423 45.8887 19.7754C46.5079 20.5085 46.8794 21.4497 46.8794 22.4651V26.0712H44.794Z" fill="#9EE75E"/>
<path d="M27.0854 30.2372H39.583V32.3176H27.0854V30.2372Z" fill="#9EE75E"/>
<path d="M1.04022 30.2372H13.5427V32.3176H1.04022V30.2372Z" fill="#9EE75E"/>
<path d="M35.417 9.40302H24.0885C23.3653 9.40302 22.6966 9.64574 22.1616 10.0618C21.6267 10.4779 21.2304 11.0723 21.0521 11.7708L18.719 21.1129L16.698 20.6077L19.036 11.2655C19.3233 10.1064 19.992 9.12068 20.8837 8.42224C21.7802 7.72876 22.8997 7.31763 24.0885 7.31763H35.417V9.40302Z" fill="#9EE75E"/>
<path d="M36.4573 18.7748V15.6542C36.4573 14.7873 36.809 14.0096 37.3737 13.44H37.3786C37.9433 12.8753 38.7259 12.5286 39.5829 12.5286V14.609C39.2956 14.609 39.0331 14.7279 38.8448 14.9112L38.8498 14.9161C38.6615 15.1044 38.5427 15.3669 38.5427 15.6542V18.7748H36.4573Z" fill="#9EE75E"/>
<path d="M23.9598 17.7346V8.35779H26.0452V17.7346H23.9598Z" fill="#9EE75E"/>
<path d="M38.5427 21.9005V25.0261H36.4573V21.9005H38.5427Z" fill="#9EE75E"/>
<path d="M0 36.4884H50V38.5688H0V36.4884Z" fill="#9EE75E"/>
<path d="M15.6281 40.6542H47.9196V42.7346H15.6281V40.6542Z" fill="#9EE75E"/>
<path d="M25 44.8201H45.8342V46.9055H25V44.8201Z" fill="#9EE75E"/>
<path d="M2.08539 40.6542H14.36C16.5643 40.6542 18.7289 41.095 20.7351 41.9223C22.7462 42.7544 24.5889 43.9779 26.1492 45.5333L28.8637 48.2478L27.3875 49.7239L24.6731 47.0094C23.301 45.6373 21.6911 44.5674 19.9475 43.8442C18.1989 43.121 16.3018 42.7346 14.36 42.7346H2.08539V40.6542Z" fill="#9EE75E"/>
<path d="M4.16583 44.8201H14.3303C15.8807 44.8201 17.3965 45.1272 18.8082 45.7117C20.2249 46.3011 21.5177 47.1581 22.6124 48.2478L21.1413 49.724C20.2348 48.8175 19.1698 48.1091 18.0206 47.6336C16.8664 47.1581 15.6132 46.9055 14.3303 46.9055H4.16583V44.8201Z" fill="#9EE75E"/>
<path d="M0 0.026123H19.7939V2.11152H0V0.026123Z" fill="#9EE75E"/>
<path d="M0 4.19189H8.33168V6.27729H0V4.19189Z" fill="#9EE75E"/>
<path d="M10.4171 4.19189H15.6281V6.27729H10.4171V4.19189Z" fill="#9EE75E"/>
<path d="M14.5829 15.6542H19.794C22.6125 15.6542 25.2229 16.5953 27.3182 18.1755C29.255 19.6417 30.751 21.6528 31.5732 23.9859H32.2915V18.7748H34.3769V25.0261V26.0713H33.3367H30.8154H30.0278L29.8148 25.3084C29.1906 23.0992 27.8532 21.1872 26.065 19.8349C24.3214 18.5173 22.1468 17.7346 19.794 17.7346H14.5829V15.6542Z" fill="#9EE75E"/>
<path d="M32.2914 31.2774V25.0261H34.3768V31.2774H32.2914Z" fill="#9EE75E"/>
<path d="M9.32235 38.0982C8.6685 37.1026 8.15334 36.0079 7.8066 34.8438C7.46977 33.7095 7.29144 32.5107 7.29144 31.2773H9.37684C9.37684 32.3225 9.52544 33.3182 9.80283 34.2593C10.0901 35.2302 10.5161 36.1367 11.0561 36.9589L9.32235 38.0982Z" fill="#9EE75E"/>
<path d="M5.15652 38.0982C4.49771 37.1026 3.98751 36.0079 3.64077 34.8438C3.30393 33.7095 3.12561 32.5107 3.12561 31.2773H5.21101C5.21101 32.3225 5.35961 33.3182 5.637 34.2593C5.9243 35.2302 6.3503 36.1367 6.89022 36.9589L5.15652 38.0982Z" fill="#9EE75E"/>
</svg>
