<svg viewBox="0 0 50 50" fill="none" xmlns="http://www.w3.org/2000/svg">
<path d="M0 0.0181885H23.9554V2.10236H0V0.0181885Z" fill="#9EE75E"/>
<path d="M0 4.18604H12.5V6.26516H0V4.18604Z" fill="#9EE75E"/>
<path d="M14.5842 4.18604H19.7921V6.26516H14.5842V4.18604Z" fill="#9EE75E"/>
<path d="M44.787 17.7256V34.3889H42.7079V17.7256H44.787Z" fill="#9EE75E"/>
<path d="M2.83609 48.1152C3.35587 47.762 3.82519 47.444 4.11788 47.2523C4.48123 47.01 4.91017 46.7325 5.42491 46.4095H5.41986C6.35345 45.814 7.32236 45.2286 8.3266 44.6483C9.28542 44.0932 10.2846 43.5482 11.3141 43.0032C12.3032 42.4783 13.3327 41.9586 14.4025 41.4539C15.437 40.9644 16.4867 40.4951 17.5515 40.0409C18.6062 39.5867 19.6962 39.1528 20.8216 38.7339C21.952 38.31 23.0622 37.9164 24.1522 37.5581C28.265 36.2056 32.5242 35.156 36.8995 34.4495C41.1587 33.7531 45.5339 33.3847 49.995 33.3645L50 35.4386C45.6601 35.4588 41.3958 35.8221 37.2325 36.4983C32.9834 37.1897 28.8302 38.2091 24.8032 39.5363H24.7981C23.6728 39.9047 22.5878 40.2832 21.5432 40.6768C20.4935 41.0704 19.4338 41.4943 18.3639 41.9485C17.3345 42.3926 16.305 42.8518 15.2856 43.3362C14.3016 43.8056 13.3024 44.3052 12.288 44.8401H12.283C11.3242 45.3397 10.3553 45.8796 9.37121 46.4448C8.43258 46.9848 7.4889 47.5601 6.53512 48.1657H6.53008C6.18187 48.3827 5.74788 48.6653 5.26342 48.9832C4.70327 49.3566 4.31974 49.614 3.99677 49.831L2.83609 48.1152Z" fill="#9EE75E"/>
<path d="M10.7741 48.0698C16.8096 44.6634 23.1631 42.0191 29.8042 40.2327C36.2485 38.4967 42.9855 37.5682 49.9949 37.5177L50 39.5968C43.1924 39.6422 36.632 40.5506 30.3391 42.2412C23.8545 43.9872 17.6625 46.5609 11.7885 49.8764L10.7741 48.0698Z" fill="#9EE75E"/>
<path d="M20.1504 48.0244C24.5761 46.0462 29.4661 44.4515 34.6134 43.3615C39.5388 42.3169 44.7214 41.7264 49.9949 41.6962L50 43.7702C44.893 43.8005 39.8516 44.3758 35.0474 45.3952C30.0313 46.46 25.2826 48.0042 20.9931 49.9218L20.1504 48.0244Z" fill="#9EE75E"/>
<path d="M50 47.9386C47.2951 47.9537 44.5246 48.1304 41.7188 48.4786C39.0391 48.8116 36.3494 49.3112 33.6798 49.9824L33.1752 47.9638C35.9406 47.2674 38.7111 46.7577 41.4665 46.4146C44.3127 46.0563 47.1639 45.8796 49.9949 45.8645L50 47.9386Z" fill="#9EE75E"/>
<path d="M43.7475 4.18605C43.7475 4.76134 43.9796 5.28112 44.3531 5.65961H44.3581C44.7315 6.03304 45.2564 6.26518 45.8317 6.26518C46.407 6.26518 46.9267 6.03304 47.3052 5.65961C47.6837 5.28112 47.9158 4.76134 47.9158 4.18605C47.9158 3.60571 47.6837 3.08593 47.3103 2.71249H47.3052C46.9267 2.33401 46.407 2.10187 45.8317 2.10187C45.2564 2.10187 44.7366 2.33401 44.3581 2.71249H44.3531C43.9796 3.08593 43.7475 3.60571 43.7475 4.18605ZM42.8845 7.12812C42.1326 6.37115 41.6633 5.33159 41.6633 4.18605C41.6633 3.03546 42.1326 1.9959 42.8896 1.23894H42.8845C43.6365 0.487018 44.6811 0.0177002 45.8317 0.0177002C46.9822 0.0177002 48.0218 0.487018 48.7788 1.23894H48.7737C49.5307 1.9959 49.995 3.03546 49.995 4.18605C49.995 5.33159 49.5307 6.37115 48.7788 7.12812C48.0218 7.88508 46.9822 8.34935 45.8317 8.34935C44.6811 8.34935 43.6365 7.88508 42.8845 7.12812Z" fill="#9EE75E"/>
<path d="M0 33.3494H49.995V35.4336H0V33.3494Z" fill="#9EE75E"/>
<path d="M0 37.5177H24.3995V39.5968H0V37.5177Z" fill="#9EE75E"/>
<path d="M0 41.681H14.0997V43.7652H0V41.681Z" fill="#9EE75E"/>
<path d="M47.9158 17.7257C47.9158 16.57 47.4516 15.5305 46.6996 14.7786H46.6946C45.9427 14.0266 44.8981 13.5573 43.7475 13.5573C42.5969 13.5573 41.5523 14.0266 40.8004 14.7786H40.7953C40.0484 15.5305 39.5791 16.57 39.5791 17.7257V25.0178C39.5791 26.1683 40.0484 27.2079 40.8004 27.9649C41.5523 28.7168 42.5969 29.1811 43.7475 29.1811C44.8981 29.1811 45.9427 28.7168 46.6946 27.9649C47.4465 27.213 47.9158 26.1683 47.9158 25.0178V17.7257ZM48.1631 13.31C49.2986 14.4404 49.995 16.0048 49.995 17.7257V25.0178C49.995 26.7386 49.2986 28.303 48.1682 29.4334H48.1631C47.0327 30.5638 45.4683 31.2652 43.7475 31.2652C42.0216 31.2652 40.4572 30.5638 39.3268 29.4334C38.1964 28.303 37.5 26.7436 37.5 25.0178V17.7257C37.5 16.0048 38.1964 14.4404 39.3319 13.31L39.3268 13.305C40.4572 12.1746 42.0216 11.4731 43.7475 11.4731C45.4734 11.4731 47.0378 12.1746 48.1682 13.305L48.1631 13.31Z" fill="#9EE75E"/>
<path d="M19.7921 30.2256V34.3889H17.7079V30.2256H19.7921Z" fill="#9EE75E"/>
<path d="M11.4604 20.8494V34.3889H9.37627V20.8494H11.4604Z" fill="#9EE75E"/>
<path d="M35.4158 23.973V34.3888H33.3317V23.973H35.4158Z" fill="#9EE75E"/>
<path d="M37.8482 20.0975C37.3739 19.6736 36.8288 19.3355 36.2283 19.1033C35.6631 18.8863 35.0374 18.7652 34.3712 18.7652C32.933 18.7652 31.631 19.3506 30.6924 20.2943L30.6873 20.2892C29.7487 21.2329 29.1633 22.5349 29.1633 23.9731C29.1633 25.4164 29.7487 26.7184 30.6873 27.657C31.631 28.6007 32.933 29.181 34.3712 29.181C35.2039 29.181 35.9861 28.9893 36.6774 28.6461C37.3991 28.2878 38.0248 27.768 38.5143 27.1271L40.1645 28.3887C39.4833 29.2769 38.6052 30.0086 37.5959 30.5082C36.6219 30.9927 35.5269 31.2652 34.3712 31.2652C32.3627 31.2652 30.541 30.4477 29.2239 29.1306L29.2188 29.1255C27.8967 27.8084 27.0842 25.9866 27.0842 23.9731C27.0842 21.9646 27.8967 20.1429 29.2188 18.8258V18.8207C30.5359 17.4986 32.3627 16.681 34.3712 16.681C35.2796 16.681 36.1577 16.8577 36.9701 17.1705C37.8129 17.4935 38.5749 17.9628 39.2309 18.5533L37.8482 20.0975Z" fill="#9EE75E"/>
<path d="M18.7475 20.8493C18.7475 18.5481 17.8189 16.464 16.3101 14.9551C14.8012 13.4512 12.717 12.5176 10.4158 12.5176C8.11465 12.5176 6.03048 13.4512 4.5216 14.9551C3.01776 16.464 2.08417 18.5481 2.08417 20.8493C2.08417 23.1505 3.01776 25.2346 4.5216 26.7435C6.03048 28.2524 8.11465 29.1809 10.4158 29.1809C12.717 29.1809 14.8012 28.2524 16.3101 26.7435C17.8189 25.2346 18.7475 23.1505 18.7475 20.8493ZM17.7836 13.4866C19.6659 15.3689 20.8316 17.9728 20.8316 20.8493C20.8316 23.7258 19.6659 26.3297 17.7836 28.2171C15.8962 30.0994 13.2923 31.2651 10.4158 31.2651C7.53936 31.2651 4.93541 30.0994 3.05309 28.2171C1.16572 26.3297 0 23.7258 0 20.8493C0 17.9728 1.16572 15.3689 3.05309 13.4866C4.93541 11.5992 7.53936 10.4335 10.4158 10.4335C13.2923 10.4335 15.8962 11.5992 17.7836 13.4866Z" fill="#9EE75E"/>
<path d="M15.9618 28.091C16.3403 28.4341 16.7794 28.7167 17.2689 28.9085C17.723 29.0851 18.2226 29.181 18.7475 29.181C19.9031 29.181 20.9427 28.7167 21.6996 27.9648C22.4515 27.2129 22.9158 26.1683 22.9158 25.0177V18.7652C22.9158 17.6146 22.4515 16.57 21.6996 15.8181H21.6946C20.9427 15.0661 19.8981 14.6019 18.7475 14.6019C18.4699 14.6019 18.1974 14.6271 17.94 14.6826C17.6625 14.7381 17.4001 14.8138 17.1528 14.9198L16.3555 12.9971C16.7339 12.8407 17.1276 12.7196 17.5313 12.6388C17.9249 12.5581 18.3337 12.5177 18.7475 12.5177C20.4733 12.5177 22.0377 13.2192 23.1681 14.3496C24.2985 15.485 25 17.0443 25 18.7652V25.0177C25 26.7385 24.2985 28.3029 23.1681 29.4333H23.1631C22.0327 30.5637 20.4733 31.2652 18.7475 31.2652C17.9653 31.2652 17.2083 31.1138 16.5119 30.8413C15.7953 30.5637 15.1342 30.1449 14.569 29.6301L15.9618 28.091Z" fill="#9EE75E"/>
</svg>
