<svg viewBox="0 0 50 49" fill="none" xmlns="http://www.w3.org/2000/svg">
<path d="M2.86534 46.898C3.37315 46.5395 3.83616 46.2259 4.13487 46.0317C4.50826 45.7928 4.92646 45.509 5.44921 45.1953V45.1804C6.37522 44.5979 7.34604 44.0005 8.34673 43.4329C9.30261 42.8803 10.3033 42.3277 11.3339 41.79C12.3196 41.2523 13.3502 40.7445 14.4106 40.2367C15.4412 39.7438 16.5016 39.2808 17.562 38.8178C18.6075 38.3697 19.6978 37.9366 20.818 37.5184C21.9531 37.1002 23.0584 36.7119 24.1487 36.3534V36.3385C28.256 34.9943 32.5126 33.9488 36.8888 33.2319C41.1454 32.5448 45.5067 32.1714 49.9575 32.1565L49.9724 34.2326C45.6411 34.2475 41.3844 34.6059 37.2174 35.293C32.9756 35.98 28.8235 36.9956 24.8058 38.3249C23.6707 38.6834 22.5954 39.0717 21.5499 39.46C20.5044 39.8484 19.4439 40.2815 18.3686 40.7296C17.338 41.1776 16.3224 41.6406 15.2918 42.1186C14.3061 42.5816 13.3203 43.0894 12.3047 43.6271H12.2897C11.3339 44.12 10.363 44.6576 9.39223 45.2252C8.45128 45.7629 7.51033 46.3304 6.55445 46.9428C6.19599 47.1519 5.76286 47.4357 5.28492 47.7643C4.7323 48.1227 4.34397 48.3916 4.01539 48.6007L2.86534 46.898Z" fill="#9EE75E"/>
<path d="M10.7812 46.8532C16.8153 43.4478 23.1629 40.8042 29.7943 39.0119C36.2316 37.2794 42.9676 36.3534 49.9575 36.3086L49.9724 38.3847C43.1618 38.4295 36.6199 39.3405 30.332 41.0283C23.85 42.7608 17.6666 45.3447 11.7969 48.6455L10.7812 46.8532Z" fill="#9EE75E"/>
<path d="M20.1609 46.8083C24.5818 44.8219 29.4658 43.2387 34.6036 42.1484C39.5175 41.1029 44.7001 40.5055 49.9575 40.4756L49.9724 42.5516C44.8644 42.5815 39.8311 43.1491 35.0368 44.1796C30.0184 45.2401 25.2838 46.7784 20.9973 48.6902L20.1609 46.8083Z" fill="#9EE75E"/>
<path d="M49.9725 46.7188C47.2691 46.7337 44.506 46.898 41.6981 47.2564C39.0246 47.585 36.3362 48.0779 33.6627 48.75L33.1698 46.7337C35.9329 46.0467 38.696 45.5388 41.4442 45.1953C44.2969 44.8369 47.1347 44.6576 49.9575 44.6427L49.9725 46.7188Z" fill="#9EE75E"/>
<path d="M0.0275726 32.1416H49.9724V34.2177H0.0275726V32.1416Z" fill="#9EE75E"/>
<path d="M0.0275726 36.3086H24.4026V38.3846H0.0275726V36.3086Z" fill="#9EE75E"/>
<path d="M0.0275726 40.4607H14.1119V42.5517H0.0275726V40.4607Z" fill="#9EE75E"/>
<path d="M23.4317 33.1871V32.8137C23.4317 30.7824 23.8499 28.781 24.6116 26.929V26.9141C25.3883 25.0621 26.5085 23.3594 27.9572 21.9106L29.4209 23.3893C28.1663 24.6439 27.1955 26.1225 26.5383 27.7206H26.5234C25.8662 29.3187 25.5227 31.0513 25.5227 32.8137V33.1871H23.4317Z" fill="#9EE75E"/>
<path d="M31.1535 15.7123C30.2723 16.5785 29.7048 17.6539 29.4508 18.7741C29.2268 19.7748 29.2567 20.8203 29.5255 21.8209C30.5113 22.0898 31.5717 22.1197 32.5724 21.8807C33.6926 21.6417 34.753 21.0742 35.6342 20.193C36.5154 19.3118 37.083 18.2364 37.3369 17.1162C37.5609 16.1155 37.531 15.07 37.2622 14.0693C36.2764 13.8005 35.216 13.7856 34.2153 14.0096C33.0951 14.2635 32.0198 14.8311 31.1535 15.6973V15.7123ZM27.4345 18.326C27.7631 16.8175 28.5099 15.3986 29.6749 14.2336C30.8399 13.0686 32.2737 12.3219 33.7673 11.9933C35.3206 11.6348 36.9336 11.7394 38.4421 12.2621L38.9051 12.4264L39.0694 12.9044C39.6071 14.3979 39.6967 16.0259 39.3532 17.5792C39.0246 19.0728 38.2778 20.5066 37.1128 21.6567C35.9479 22.8216 34.529 23.5684 33.0205 23.9119C31.4672 24.2555 29.8392 24.1658 28.3456 23.6282L27.8826 23.4639L27.7034 23.0009C27.1806 21.4924 27.0761 19.8644 27.4345 18.326Z" fill="#9EE75E"/>
<path d="M23.4318 33.1871V32.8137C23.4318 31.0513 23.0883 29.3038 22.4311 27.7057C21.759 26.1225 20.7882 24.6439 19.5336 23.3893L20.9973 21.9106C22.446 23.3594 23.5662 25.0621 24.3429 26.929C25.1046 28.781 25.5228 30.7824 25.5228 32.8137V33.1871H23.4318Z" fill="#9EE75E"/>
<path d="M19.2647 14.2336H19.2796C20.4446 15.3986 21.1914 16.8324 21.52 18.326C21.8784 19.8644 21.7739 21.4924 21.2511 23.0009L21.0869 23.4639L20.6089 23.6282C19.1153 24.1658 17.4874 24.2555 15.9341 23.9119C14.4405 23.5684 13.0067 22.8216 11.8417 21.6567C10.6916 20.5066 9.92992 19.0728 9.60133 17.5792C9.25781 16.0259 9.34743 14.3979 9.88511 12.9044L10.0494 12.4264L10.5124 12.2621C12.0209 11.7394 13.6489 11.6348 15.1873 11.9933C16.6808 12.3219 18.0997 13.0686 19.2647 14.2336ZM19.5037 18.7741C19.2498 17.6539 18.6822 16.5785 17.8159 15.7123L17.801 15.6973C16.9347 14.8311 15.8594 14.2635 14.7392 14.0096C13.7385 13.7856 12.693 13.8005 11.6923 14.0693C11.4235 15.07 11.3936 16.1155 11.6176 17.1162C11.8716 18.2364 12.4391 19.3118 13.3203 20.193C14.2015 21.0742 15.2619 21.6417 16.3971 21.8807C17.3977 22.1197 18.4432 22.0898 19.4439 21.8209C19.6978 20.8203 19.7277 19.7748 19.5037 18.7741Z" fill="#9EE75E"/>
<path d="M19.2199 7.79642C19.2199 6.15349 19.6979 4.61512 20.5193 3.33065C21.3706 1.98644 22.5954 0.89614 24.0292 0.209099L24.4773 0L24.9253 0.209099C26.3592 0.89614 27.5839 1.98644 28.4352 3.33065C29.2567 4.61512 29.7346 6.15349 29.7346 7.79642C29.7346 9.43934 29.2567 10.9777 28.4352 12.2771C27.5839 13.6213 26.3592 14.7116 24.9253 15.3987L24.4773 15.6078L24.0292 15.3987C22.5954 14.7116 21.3706 13.6213 20.5193 12.2771C19.6979 10.9777 19.2199 9.43934 19.2199 7.79642ZM22.2817 4.43589C21.6694 5.40671 21.3109 6.55676 21.3109 7.79642C21.3109 9.05101 21.6694 10.2011 22.2817 11.1719C22.8343 12.0381 23.5811 12.77 24.4773 13.2778C25.3734 12.77 26.1351 12.0381 26.6728 11.1719C27.2852 10.2011 27.6436 9.05101 27.6436 7.79642C27.6436 6.55676 27.2852 5.40671 26.6728 4.43589C26.1351 3.56962 25.3734 2.83778 24.4773 2.32996C23.5811 2.83778 22.8343 3.56962 22.2817 4.43589Z" fill="#9EE75E"/>
<path d="M25.5227 14.4578V33.1871H23.4317V14.4578H25.5227Z" fill="#9EE75E"/>
<path d="M45.8054 23.8224V33.187H43.7293V23.8224H45.8054Z" fill="#9EE75E"/>
<path d="M40.6078 26.944V33.1871H38.5168V26.944H40.6078Z" fill="#9EE75E"/>
<path d="M11.4683 23.8224V33.187H9.39223V23.8224H11.4683Z" fill="#9EE75E"/>
<path d="M6.27067 26.944V33.1871H4.19461V26.944H6.27067Z" fill="#9EE75E"/>
<path d="M16.6808 29.02V33.1871H14.5898V29.02H16.6808Z" fill="#9EE75E"/>
<path d="M35.3952 29.02V33.1871H33.3192V29.02H35.3952Z" fill="#9EE75E"/>
</svg>
