<svg viewBox="0 0 40 50" fill="none" xmlns="http://www.w3.org/2000/svg">
<path d="M20.0095 10.4354C20.0095 12.1545 19.3017 13.7224 18.154 14.8558C17.0062 15.9892 15.4376 16.6882 13.6776 16.6882C11.9368 16.6882 10.3682 15.9892 9.22044 14.8558C8.07266 13.7224 7.36487 12.1545 7.36487 10.4354V4.20156C7.36487 3.06813 7.84311 2.02915 8.60829 1.27354V1.25464C9.37348 0.517916 10.4256 0.0456543 11.5734 0.0456543H15.7819C16.9488 0.0456543 18.0009 0.517916 18.7661 1.25464V1.27354C19.5313 2.02915 20.0095 3.06813 20.0095 4.20156H19.9904V10.4354H20.0095ZM16.6619 13.3823C17.427 12.6267 17.9053 11.5877 17.9053 10.4354V4.20156C17.9053 3.63485 17.6566 3.10591 17.2931 2.7281H17.274C16.8914 2.35029 16.3749 2.12361 15.7819 2.12361H11.5734C10.9995 2.12361 10.4639 2.35029 10.1004 2.7281H10.0813C9.71781 3.10591 9.46913 3.63485 9.46913 4.20156V10.4354C9.46913 11.5877 9.94737 12.6267 10.7125 13.3823C11.4777 14.138 12.5299 14.5913 13.6776 14.5913C14.8445 14.5913 15.8967 14.138 16.6619 13.3823Z" fill="#9EE75E"/>
<path d="M3.15637 6.27954H24.2181V8.35749H3.15637V6.27954Z" fill="#9EE75E"/>
<path d="M6.31275 27.0779V49.9542H4.2085V27.0779H6.31275Z" fill="#9EE75E"/>
<path d="M10.5212 19.8052V31.2339H8.41699V19.8052H10.5212Z" fill="#9EE75E"/>
<path d="M18.9575 19.8052V31.2339H16.8532V19.8052H18.9575Z" fill="#9EE75E"/>
<path d="M16.8531 41.6237V36.4288H10.5212V41.6237H16.8531ZM18.9574 35.3898V42.6626V43.7016H17.9053H9.46912H8.41699V42.6626V35.3898V34.3508H9.46912H17.9053H18.9574V35.3898Z" fill="#9EE75E"/>
<path d="M23.166 27.0779V49.9542H21.0617V27.0779H23.166Z" fill="#9EE75E"/>
<path d="M23.166 36.4287H31.583C32.1569 36.4287 32.6925 36.2021 33.0751 35.8242C33.4577 35.4464 33.6872 34.9175 33.6872 34.3508H26.3223H25.2702V33.3118V25C25.2702 24.2822 25.0215 23.6021 24.6007 23.0732C24.1798 22.5442 23.5868 22.1475 22.879 21.9775C19.8565 21.2219 16.7767 20.863 13.6777 20.863C10.5978 20.863 7.51793 21.2219 4.49546 21.9775C3.78766 22.1475 3.19464 22.5442 2.77379 23.0732C2.35294 23.6021 2.10426 24.2822 2.10426 25V43.7016C2.10426 44.2872 2.33381 44.7972 2.7164 45.175C3.099 45.5528 3.63462 45.7795 4.20851 45.7795H5.26064V47.8764H4.20851C3.04161 47.8764 1.98948 47.4041 1.22429 46.6485C0.47824 45.8929 0 44.8539 0 43.7016V25C0 23.8099 0.420851 22.6954 1.10952 21.8075C1.81731 20.9197 2.81205 20.2585 3.97896 19.9562C7.1736 19.1817 10.4256 18.785 13.6777 18.785C16.9297 18.785 20.2009 19.1817 23.3764 19.9562C24.5624 20.2585 25.5572 20.9197 26.2458 21.8075C26.9536 22.6954 27.3745 23.8099 27.3745 25V32.2728H34.7394H35.7915V33.3118V34.3508C35.7915 35.5031 35.3132 36.5421 34.5672 37.2977C33.802 38.0533 32.7499 38.5067 31.583 38.5067H23.166V36.4287Z" fill="#9EE75E"/>
<path d="M6.31274 30.1949H21.0617V32.2729H6.31274V30.1949Z" fill="#9EE75E"/>
<path d="M35.7915 19.8052V49.9544H33.6873V19.8052H35.7915Z" fill="#9EE75E"/>
<path d="M37.8958 13.4014C37.8958 13.0047 37.781 12.6269 37.5897 12.3057C37.3793 11.9846 37.0923 11.7201 36.7289 11.5501L34.7394 10.5678L32.7499 11.5501C32.3865 11.7201 32.0995 11.9846 31.8891 12.3057C31.6978 12.6269 31.583 13.0047 31.583 13.4014V18.7663H37.8958V13.4014ZM39.3688 11.229C39.7705 11.8712 40 12.6269 40 13.4014V19.8052V20.8442H38.9479H30.5309H29.4788V19.8052V13.4014C29.4788 12.6269 29.7083 11.8712 30.11 11.229C30.5118 10.5867 31.0856 10.0389 31.8126 9.69883L34.2803 8.47095L34.7394 8.24426L35.2176 8.47095L37.6662 9.69883C38.3932 10.0389 38.967 10.5867 39.3688 11.229Z" fill="#9EE75E"/>
</svg>
