<svg xmlns="http://www.w3.org/2000/svg" xmlns:xlink="http://www.w3.org/1999/xlink" width="0" height="0" style="position:absolute">
	
		<symbol id="arrow" viewBox="0 0 11 18">
			<path d="M10 17L2 9l8-8"></path>
		</symbol>
	
		<symbol id="eng" viewBox="0 0 27 16">
			<path fill-rule="evenodd" clip-rule="evenodd" d="M0 15.764h27V0H0v15.764z" fill="#FEFEFE"></path><path fill-rule="evenodd" clip-rule="evenodd" d="M18.077 5.696L27 .699V0h-.617L16.212 5.696h1.865zM17.653 10.38L27 15.609v-1.04l-7.474-4.187h-1.873zM0 1.197l7.994 4.499H9.86L0 .156v1.041zM9.436 10.38L0 15.669v.097h1.701l9.6-5.384H9.436z" fill="#BE2836"></path><path fill-rule="evenodd" clip-rule="evenodd" d="M25.15 0H15.7v5.302L25.15 0zM11.524 0H2.11l9.414 5.302V0zM27 5.696V2.082l-6.412 3.614H27zM27 13.957v-3.576h-6.412L27 13.957zM2.645 15.764h8.879v-4.982l-8.879 4.982zM15.7 15.764h8.908l-8.909-4.982v4.982zM0 10.38v3.741l6.635-3.74H0zM0 5.696h6.635L0 1.956v3.74z" fill="#363571"></path><path fill-rule="evenodd" clip-rule="evenodd" d="M12.356 0v6.633H0v2.81h12.356v6.322h2.504V9.444H27V6.633H14.86V0h-2.504z" fill="#BE2836"></path>
		</symbol>
	
		<symbol id="icon-1" viewBox="0 0 50 49">
			<path d="M2.865 46.898c.508-.359.971-.672 1.27-.866.373-.24.791-.523 1.314-.837v-.015a74.353 74.353 0 0 1 2.898-1.747 78.956 78.956 0 0 1 2.987-1.643 65.606 65.606 0 0 1 3.077-1.553c1.03-.493 2.09-.956 3.151-1.42a73.868 73.868 0 0 1 3.256-1.299 99.85 99.85 0 0 1 3.33-1.165v-.014a85.276 85.276 0 0 1 12.74-3.107 83.69 83.69 0 0 1 13.07-1.075l.014 2.076a80.015 80.015 0 0 0-12.755 1.06 80.484 80.484 0 0 0-12.411 3.032c-1.135.358-2.21.747-3.256 1.135a88.076 88.076 0 0 0-3.181 1.27c-1.031.448-2.047.91-3.077 1.389a70.16 70.16 0 0 0-2.987 1.508h-.015a62.735 62.735 0 0 0-2.898 1.598 65.292 65.292 0 0 0-2.838 1.718c-.358.209-.791.493-1.27.821-.552.359-.94.628-1.269.837l-1.15-1.703zM10.781 46.853c6.034-3.405 12.382-6.049 19.013-7.841 6.438-1.733 13.174-2.659 20.164-2.703l.014 2.076a77.404 77.404 0 0 0-19.64 2.643c-6.482 1.733-12.665 4.317-18.535 7.617l-1.016-1.792z" fill="#9EE75E"></path><path d="M20.16 46.808c4.422-1.986 9.306-3.57 14.444-4.66a76.143 76.143 0 0 1 15.354-1.672l.014 2.076a73.327 73.327 0 0 0-14.935 1.628c-5.019 1.06-9.753 2.598-14.04 4.51l-.836-1.882zM49.972 46.719c-2.703.015-5.466.179-8.274.537a65.993 65.993 0 0 0-8.035 1.494l-.493-2.016a71.24 71.24 0 0 1 16.788-2.091l.014 2.076zM.028 32.142h49.944v2.076H.028v-2.076zM.028 36.309h24.375v2.076H.028v-2.076zM.028 40.46h14.084v2.092H.028V40.46z" fill="#9EE75E"></path><path d="M23.432 33.187v-.373a15.5 15.5 0 0 1 1.18-5.885v-.015a15.574 15.574 0 0 1 3.345-5.003l1.464 1.478a13.25 13.25 0 0 0-2.883 4.332h-.015a13.4 13.4 0 0 0-1 5.093v.373h-2.091z" fill="#9EE75E"></path><path d="M31.154 15.712a6.216 6.216 0 0 0-1.703 3.062c-.224 1-.194 2.046.075 3.047a6.188 6.188 0 0 0 3.046.06 6.136 6.136 0 0 0 3.062-1.688 6.324 6.324 0 0 0 1.703-3.077c.224-1 .194-2.046-.075-3.047a6.372 6.372 0 0 0-3.047-.06 6.307 6.307 0 0 0-3.062 1.688v.015zm-3.72 2.614a8.24 8.24 0 0 1 2.24-4.092 8.304 8.304 0 0 1 4.093-2.24 8.449 8.449 0 0 1 4.675.268l.463.164.164.478a8.444 8.444 0 0 1 .284 4.675 8.197 8.197 0 0 1-2.24 4.078 8.385 8.385 0 0 1-4.093 2.255 8.444 8.444 0 0 1-4.674-.284l-.463-.164-.18-.463a8.457 8.457 0 0 1-.268-4.675zM23.432 33.187v-.373c0-1.763-.344-3.51-1-5.108a13.635 13.635 0 0 0-2.898-4.317l1.463-1.478a15.477 15.477 0 0 1 3.346 5.018 15.5 15.5 0 0 1 1.18 5.885v.373h-2.091z" fill="#9EE75E"></path><path d="M19.265 14.234h.015a8.304 8.304 0 0 1 2.24 4.092 8.457 8.457 0 0 1-.269 4.675l-.164.463-.478.164a8.444 8.444 0 0 1-4.675.284 8.451 8.451 0 0 1-4.092-2.255 8.313 8.313 0 0 1-2.24-4.078 8.444 8.444 0 0 1 .283-4.675l.164-.478.463-.164c1.509-.523 3.137-.627 4.675-.269a8.26 8.26 0 0 1 4.078 2.24zm.239 4.54a6.305 6.305 0 0 0-1.688-3.062l-.015-.015a6.307 6.307 0 0 0-3.062-1.687c-1-.224-2.046-.21-3.047.06a6.377 6.377 0 0 0-.074 3.046 6.325 6.325 0 0 0 1.702 3.077 6.117 6.117 0 0 0 3.077 1.688c1 .239 2.046.209 3.047-.06.254-1 .284-2.046.06-3.047zM19.22 7.796c0-1.643.478-3.18 1.3-4.465A8.54 8.54 0 0 1 24.03.209L24.476 0l.448.21a8.539 8.539 0 0 1 3.51 3.12 8.275 8.275 0 0 1 1.3 4.466 8.365 8.365 0 0 1-1.3 4.481 8.54 8.54 0 0 1-3.51 3.122l-.448.209-.448-.21a8.54 8.54 0 0 1-3.51-3.12 8.365 8.365 0 0 1-1.3-4.482zm3.062-3.36c-.613.97-.971 2.12-.971 3.36a6.307 6.307 0 0 0 3.166 5.481 6.183 6.183 0 0 0 2.196-2.105c.612-.97.97-2.121.97-3.376 0-1.24-.358-2.39-.97-3.36a6.183 6.183 0 0 0-2.196-2.106 6.307 6.307 0 0 0-2.195 2.106z" fill="#9EE75E"></path><path d="M25.523 14.458v18.73h-2.091v-18.73h2.09zM45.805 23.822v9.365H43.73v-9.365h2.076zM40.608 26.944v6.243h-2.091v-6.243h2.09zM11.468 23.822v9.365H9.392v-9.365h2.076zM6.27 26.944v6.243H4.196v-6.243H6.27zM16.68 29.02v4.167h-2.09V29.02h2.09zM35.395 29.02v4.167H33.32V29.02h2.076z" fill="#9EE75E"></path>
		</symbol>
	
		<symbol id="icon-2" viewBox="0 0 40 50">
			<path d="M20.01 10.435c0 1.72-.708 3.287-1.856 4.42a6.326 6.326 0 0 1-4.476 1.833c-1.741 0-3.31-.699-4.458-1.832a6.202 6.202 0 0 1-1.855-4.42V4.201c0-1.134.478-2.173 1.243-2.928v-.02A4.288 4.288 0 0 1 11.573.047h4.209a4.3 4.3 0 0 1 2.984 1.209v.019a4.118 4.118 0 0 1 1.244 2.928h-.02v6.233h.02zm-3.348 2.947a4.13 4.13 0 0 0 1.243-2.947V4.202c0-.567-.248-1.096-.612-1.474h-.019a2.092 2.092 0 0 0-1.492-.604h-4.209c-.574 0-1.11.226-1.473.604h-.019a2.155 2.155 0 0 0-.612 1.474v6.233a4.13 4.13 0 0 0 1.244 2.947 4.206 4.206 0 0 0 2.965 1.21c1.166 0 2.219-.454 2.984-1.21z" fill="#9EE75E"></path><path d="M3.156 6.28h21.062v2.077H3.156V6.28zM6.313 27.078v22.876H4.209V27.078h2.104zM10.521 19.805v11.429H8.417V19.805h2.104zM18.957 19.805v11.429h-2.104V19.805h2.104zM16.853 41.624v-5.195h-6.332v5.195h6.332zm2.104-6.234v8.312H8.417V34.35h10.54v1.04zM23.166 27.078v22.876h-2.104V27.078h2.104z" fill="#9EE75E"></path><path d="M23.166 36.429h8.417c.574 0 1.11-.227 1.492-.605.383-.378.612-.907.612-1.473H25.27V25a3.104 3.104 0 0 0-2.391-3.023 37.854 37.854 0 0 0-9.201-1.114c-3.08 0-6.16.359-9.183 1.114A3.104 3.104 0 0 0 2.104 25v18.702c0 .585.23 1.095.612 1.473.383.378.919.605 1.493.605H5.26v2.096H4.209a4.234 4.234 0 0 1-2.985-1.227A4.192 4.192 0 0 1 0 43.701V25c0-1.19.42-2.305 1.11-3.192a5.384 5.384 0 0 1 2.869-1.852 41.151 41.151 0 0 1 9.699-1.171c3.252 0 6.523.397 9.698 1.171 1.186.303 2.181.964 2.87 1.852A5.12 5.12 0 0 1 27.375 25v7.273h8.417v2.078a4.192 4.192 0 0 1-1.225 2.947 4.218 4.218 0 0 1-2.984 1.209h-8.417v-2.078z" fill="#9EE75E"></path><path d="M6.313 30.195h14.749v2.078H6.312v-2.078zM35.791 19.805v30.15h-2.104v-30.15h2.105z" fill="#9EE75E"></path><path d="M37.896 13.401c0-.396-.115-.774-.306-1.095a2.079 2.079 0 0 0-.861-.756l-1.99-.982-1.99.982c-.363.17-.65.435-.86.756a2.147 2.147 0 0 0-.306 1.095v5.365h6.313v-5.365zm1.473-2.172c.401.642.631 1.398.631 2.172v7.444H29.479V13.4c0-.774.23-1.53.631-2.172a4.033 4.033 0 0 1 1.703-1.53L34.28 8.47l.46-.227.478.227 2.448 1.228c.727.34 1.301.888 1.703 1.53z" fill="#9EE75E"></path>
		</symbol>
	
		<symbol id="icon-3" viewBox="0 0 50 50">
			<path d="M0 .018h23.955v2.084H0V.018zM0 4.186h12.5v2.08H0v-2.08zM14.584 4.186h5.208v2.08h-5.208v-2.08zM44.787 17.726v16.663h-2.08V17.726h2.08z" fill="#9EE75E"></path><path d="M2.836 48.115c.52-.353.99-.671 1.282-.863.363-.242.792-.52 1.307-.843H5.42a77.61 77.61 0 0 1 2.907-1.76c.958-.556 1.958-1.1 2.987-1.646a73.364 73.364 0 0 1 3.088-1.55 89.02 89.02 0 0 1 3.15-1.412 70.047 70.047 0 0 1 3.27-1.307A83.318 83.318 0 0 1 36.9 34.45a83.471 83.471 0 0 1 13.095-1.086L50 35.44a81.98 81.98 0 0 0-12.767 1.06 81.533 81.533 0 0 0-12.43 3.037h-.005a78.557 78.557 0 0 0-6.434 2.413c-1.03.444-2.059.903-3.078 1.387a83.47 83.47 0 0 0-2.998 1.504h-.005c-.959.5-1.928 1.04-2.912 1.605a76.069 76.069 0 0 0-2.836 1.72H6.53c-.348.218-.782.5-1.267.818l-1.266.848-1.16-1.716z" fill="#9EE75E"></path><path d="M10.774 48.07c6.036-3.407 12.39-6.05 19.03-7.837 6.445-1.736 13.182-2.665 20.19-2.715L50 39.597a77.514 77.514 0 0 0-19.66 2.644c-6.485 1.746-12.677 4.32-18.551 7.635l-1.015-1.806z" fill="#9EE75E"></path><path d="M20.15 48.024c4.426-1.978 9.316-3.572 14.463-4.663a76.467 76.467 0 0 1 15.382-1.665L50 43.77a74.401 74.401 0 0 0-14.953 1.625c-5.016 1.065-9.764 2.61-14.054 4.527l-.843-1.898zM50 47.939a70.509 70.509 0 0 0-8.281.54c-2.68.333-5.37.832-8.04 1.503l-.504-2.018a68.711 68.711 0 0 1 8.292-1.55 71.35 71.35 0 0 1 8.528-.55L50 47.94zM43.748 4.186c0 .575.232 1.095.605 1.474h.005c.373.373.898.605 1.474.605a2.075 2.075 0 0 0 2.084-2.08c0-.58-.232-1.1-.606-1.473h-.005a2.075 2.075 0 0 0-1.473-.61c-.576 0-1.095.232-1.474.61h-.005a2.073 2.073 0 0 0-.605 1.474zm-.863 2.942a4.154 4.154 0 0 1 .005-5.89h-.005a4.17 4.17 0 0 1 5.894 0h-.005a4.163 4.163 0 1 1-5.89 5.89zM0 33.35h49.995v2.084H0v-2.085zM0 37.518h24.4v2.079H0v-2.08zM0 41.681h14.1v2.084H0v-2.084zM47.916 17.726a4.148 4.148 0 0 0-1.216-2.947h-.005a4.161 4.161 0 0 0-2.947-1.222c-1.151 0-2.196.47-2.948 1.222h-.005a4.169 4.169 0 0 0-1.216 2.947v7.292a4.157 4.157 0 0 0 4.168 4.163 4.157 4.157 0 0 0 4.169-4.163v-7.292zm.247-4.416a6.212 6.212 0 0 1 1.832 4.416v7.292c0 1.72-.696 3.285-1.827 4.415h-.005a6.233 6.233 0 0 1-4.415 1.832 6.236 6.236 0 0 1-4.421-1.832 6.22 6.22 0 0 1-1.827-4.415v-7.292c0-1.721.696-3.286 1.832-4.416l-.005-.005a6.236 6.236 0 0 1 4.42-1.832c1.726 0 3.29.702 4.421 1.832l-.005.005z" fill="#9EE75E"></path><path d="M19.792 30.226v4.163h-2.084v-4.163h2.084zM11.46 20.85v13.539H9.376v-13.54h2.084zM35.416 23.973v10.416h-2.084V23.973h2.084z" fill="#9EE75E"></path><path d="M37.848 20.098a5.292 5.292 0 0 0-1.62-.995 5.17 5.17 0 0 0-1.857-.338c-1.438 0-2.74.586-3.679 1.53l-.005-.006a5.212 5.212 0 0 0 0 7.368 5.19 5.19 0 0 0 3.684 1.524 5.168 5.168 0 0 0 4.143-2.054l1.65 1.262a7.364 7.364 0 0 1-2.568 2.12 7.262 7.262 0 0 1-8.372-1.378l-.005-.006a7.245 7.245 0 0 1-2.135-5.152c0-2.008.813-3.83 2.135-5.147v-.005a7.23 7.23 0 0 1 7.751-1.65 7.25 7.25 0 0 1 2.26 1.382l-1.382 1.544zM18.747 20.85a8.307 8.307 0 0 0-2.437-5.895 8.327 8.327 0 0 0-5.894-2.437 8.327 8.327 0 0 0-5.894 2.437 8.327 8.327 0 0 0-2.438 5.894c0 2.302.934 4.386 2.438 5.895a8.306 8.306 0 0 0 5.894 2.437 8.306 8.306 0 0 0 5.894-2.438 8.307 8.307 0 0 0 2.438-5.894zm-.963-7.363a10.381 10.381 0 0 1 3.048 7.362c0 2.877-1.166 5.48-3.048 7.368a10.402 10.402 0 0 1-7.368 3.048c-2.877 0-5.48-1.166-7.363-3.048A10.385 10.385 0 0 1 0 20.85c0-2.876 1.166-5.48 3.053-7.362a10.364 10.364 0 0 1 7.363-3.053c2.876 0 5.48 1.165 7.368 3.053z" fill="#9EE75E"></path><path d="M15.962 28.091c.378.343.817.626 1.307.817.454.177.954.273 1.479.273a4.169 4.169 0 0 0 2.952-1.216 4.157 4.157 0 0 0 1.216-2.947v-6.253c0-1.15-.465-2.195-1.216-2.947h-.005a4.157 4.157 0 0 0-3.755-1.135c-.277.055-.54.13-.787.237l-.797-1.923a6.335 6.335 0 0 1 1.175-.358 6.236 6.236 0 0 1 5.637 1.71A6.242 6.242 0 0 1 25 18.766v6.253c0 1.72-.701 3.285-1.832 4.415h-.005a6.224 6.224 0 0 1-4.416 1.832c-.782 0-1.539-.151-2.235-.424a6.262 6.262 0 0 1-1.943-1.21l1.393-1.54z" fill="#9EE75E"></path>
		</symbol>
	
		<symbol id="icon-4" viewBox="0 0 50 50">
			<path d="M26.045 28.152c0-1.724-.703-3.29-1.833-4.419a6.25 6.25 0 0 0-10.67 4.419c0 1.729.7 3.294 1.828 4.418a6.229 6.229 0 0 0 4.424 1.833c1.724 0 3.289-.698 4.418-1.833h.005a6.216 6.216 0 0 0 1.828-4.418zm-.362-5.89a8.291 8.291 0 0 1 2.443 5.89 8.3 8.3 0 0 1-2.443 5.89v.004a8.311 8.311 0 0 1-5.89 2.442 8.323 8.323 0 0 1-5.894-2.442v-.005a8.32 8.32 0 0 1 0-11.779 8.303 8.303 0 0 1 5.895-2.442 8.29 8.29 0 0 1 5.89 2.442zM47.92 30.757a3.656 3.656 0 0 0-1.07-2.58 3.631 3.631 0 0 0-2.576-1.066 3.643 3.643 0 0 0-2.58 1.066 3.652 3.652 0 0 0 0 5.156 3.639 3.639 0 0 0 5.156 0 3.635 3.635 0 0 0 1.07-2.576zm.406-4.052A5.717 5.717 0 0 1 50 30.757a5.726 5.726 0 0 1-9.778 4.052 5.73 5.73 0 1 1 8.104-8.104z" fill="#9EE75E"></path><path d="M21.874 28.152c0-.575-.232-1.095-.609-1.472a2.086 2.086 0 0 0-2.947 0h-.005a2.073 2.073 0 0 0-.604 1.472 2.077 2.077 0 0 0 2.085 2.085 2.085 2.085 0 0 0 2.08-2.085zm.867-2.948a4.168 4.168 0 0 1 1.219 2.948 4.16 4.16 0 0 1-1.219 2.947l-.005-.005a4.152 4.152 0 0 1-5.89 0v.005a4.163 4.163 0 0 1-1.223-2.947c0-1.145.47-2.19 1.224-2.943v-.005a4.15 4.15 0 0 1 2.947-1.218c1.15 0 2.19.465 2.947 1.218zM44.794 26.071v-3.606c0-.51-.183-.98-.495-1.347a2.064 2.064 0 0 0-1.249-.709 41.405 41.405 0 0 0-3.561-.44 43.24 43.24 0 0 0-3.591-.149h-3.503l-.094-.941-1.04-10.417 2.066-.203.946 9.476h1.625a45.747 45.747 0 0 1 7.494.624 4.155 4.155 0 0 1 2.497 1.416c.619.734.99 1.675.99 2.69v3.606h-2.085zM27.085 30.237h12.498v2.08H27.085v-2.08zM1.04 30.237h12.503v2.08H1.04v-2.08z" fill="#9EE75E"></path><path d="M35.417 9.403H24.088c-.723 0-1.391.243-1.926.659a3.14 3.14 0 0 0-1.11 1.709l-2.333 9.342-2.021-.505 2.338-9.343a5.199 5.199 0 0 1 1.848-2.843 5.241 5.241 0 0 1 3.204-1.104h11.329v2.085zM36.457 18.775v-3.12c0-.868.352-1.645.917-2.215h.005a3.112 3.112 0 0 1 2.204-.911v2.08c-.287 0-.55.119-.738.302l.005.005c-.189.188-.307.45-.307.738v3.12h-2.086z" fill="#9EE75E"></path><path d="M23.96 17.735V8.358h2.085v9.377H23.96zM38.543 21.9v3.126h-2.086v-3.125h2.086zM0 36.488h50v2.08H0v-2.08zM15.628 40.654H47.92v2.08H15.628v-2.08zM25 44.82h20.834v2.086H25V44.82z" fill="#9EE75E"></path><path d="M2.085 40.654H14.36c2.204 0 4.369.441 6.375 1.268a16.732 16.732 0 0 1 5.414 3.611l2.715 2.715-1.477 1.476-2.714-2.715a14.596 14.596 0 0 0-4.725-3.165 14.62 14.62 0 0 0-5.588-1.11H2.085v-2.08z" fill="#9EE75E"></path><path d="M4.166 44.82H14.33c1.55 0 3.066.307 4.478.892 1.417.59 2.71 1.446 3.804 2.536l-1.47 1.476a9.628 9.628 0 0 0-3.121-2.09 9.689 9.689 0 0 0-3.69-.728H4.165V44.82zM0 .026h19.794v2.086H0V.026zM0 4.192h8.332v2.085H0V4.192zM10.417 4.192h5.211v2.085h-5.21V4.192zM14.583 15.654h5.211c2.819 0 5.429.941 7.524 2.521a12.513 12.513 0 0 1 4.255 5.81h.718v-5.21h2.086v7.296h-4.349l-.213-.763a10.428 10.428 0 0 0-3.75-5.473 10.372 10.372 0 0 0-6.271-2.1h-5.211v-2.08z" fill="#9EE75E"></path><path d="M32.291 31.277v-6.25h2.086v6.25H32.29zM9.322 38.098a12.356 12.356 0 0 1-2.03-6.82h2.085c0 1.044.148 2.04.426 2.981.287.971.713 1.878 1.253 2.7l-1.734 1.14zM5.157 38.098a12.201 12.201 0 0 1-1.516-3.254 12.518 12.518 0 0 1-.515-3.567H5.21c0 1.045.149 2.041.426 2.982.287.971.713 1.878 1.253 2.7l-1.733 1.14z" fill="#9EE75E"></path>
		</symbol>
	
		<symbol id="next" viewBox="0 0 306 306">
			<path d="M94.35 0l-35.7 35.7L175.95 153 58.65 270.3l35.7 35.7 153-153z"></path>
		</symbol>
	
		<symbol id="rus" viewBox="0 0 27 16">
			<g clip-path="url(#a)" fill-rule="evenodd" clip-rule="evenodd"><path d="M0 5.343h27V.031H0v5.312z" fill="#F3F3F5"></path><path d="M0 10.657h27V5.343H0v5.314z" fill="#3B3C8A"></path><path d="M0 15.97h27v-5.313H0v5.312z" fill="#D32326"></path></g><defs><clipPath id="a"><path fill="#fff" d="M0 0h27v16H0z"></path></clipPath></defs>
		</symbol>
	
</svg>
