<svg height="512pt" viewBox="0 0 512 512.023" width="512pt" xmlns="http://www.w3.org/2000/svg"><path d="M452.277 298.691h34.133v145.067h-34.133zm0 0" fill="#ced7db"/><path d="M503.477 256.023v25.598l-17.067 59.734h-34.133l-17.066-59.734v-25.598zm0 0" fill="#607d8a"/><path d="M477.879 256.023v25.598l-17.067 59.734h-8.535l-17.066-59.734v-25.598zm0 0" fill="#ced7db"/><path d="M401.078 59.758v256c0 18.851-15.281 34.133-34.133 34.133l-23.98-.086-308.82-1.024c-15.075-3.867-25.614-17.46-25.602-33.023v-256zm0 0" fill="#9d9d9d"/><path d="M375.477 59.758v256c.039 18.226-14.301 33.242-32.512 34.047l-308.82-1.024c-15.075-3.867-25.614-17.46-25.602-33.023v-256zm0 0" fill="#ced7db"/><path d="M401.078 42.691v34.133H8.543V42.691c0-18.851 15.285-34.136 34.137-34.136h324.265c18.852 0 34.133 15.285 34.133 34.136zm0 0" fill="#00828e"/><path d="M375.477 42.691v34.133H8.543V42.691c0-18.851 15.285-34.136 34.137-34.136h298.664c18.851 0 34.133 15.285 34.133 34.136zm0 0" fill="#00bbd3"/><path d="M59.746 42.691a8.533 8.533 0 0 1-8.535 8.532 8.532 8.532 0 0 1-8.531-8.532 8.533 8.533 0 1 1 17.066 0zm0 0" fill="#e64c3c"/><path d="M93.879 42.691a8.533 8.533 0 0 1-8.535 8.532 8.532 8.532 0 0 1-8.531-8.532 8.533 8.533 0 1 1 17.066 0zm0 0" fill="#f0c419"/><path d="M128.012 42.691a8.533 8.533 0 0 1-8.535 8.532 8.532 8.532 0 0 1-8.532-8.532 8.533 8.533 0 1 1 17.067 0zm0 0" fill="#14a085"/><path d="M366.945 42.691a8.533 8.533 0 0 1-8.535 8.532 8.532 8.532 0 0 1-8.531-8.532 8.533 8.533 0 1 1 17.066 0zm0 0" fill="#955ba5"/><path d="M51.21 110.957h307.2a8.533 8.533 0 0 1 8.535 8.531v85.336a8.533 8.533 0 0 1-8.535 8.531H51.21a8.532 8.532 0 0 1-8.53-8.53v-85.337c0-4.71 3.82-8.531 8.53-8.531zm0 0" fill="#c42828"/><path d="M341.344 119.488v85.336a8.59 8.59 0 0 1-8.106 8.531H51.211a8.532 8.532 0 0 1-8.531-8.53v-85.337c0-4.71 3.82-8.531 8.53-8.531h281.603c4.71 0 8.53 3.82 8.53 8.531zm0 0" fill="#f34335"/><path d="M208.309 196.8c4.183-.34 8.449-.51 12.714-.51 66.125.1 124.676 42.741 145.067 105.644a17.06 17.06 0 0 1-16.211 22.355h-2.305a55.727 55.727 0 0 1-15.187-2.047 17.162 17.162 0 0 0 8.105-20.308C321.523 243.535 269.477 202.14 208.31 196.8zM366.09 397.848c-21.848 67.394-87.168 110.918-157.781 105.129 61.168-5.34 113.214-46.735 132.183-105.13 2.531-7.882-.957-16.445-8.277-20.308a56.833 56.833 0 0 1 15.273-2.05h2.39a17.075 17.075 0 0 1 13.806 7.046 17.07 17.07 0 0 1 2.406 15.313zm0 0" fill="#4e342e"/><path d="M340.492 397.848c-18.969 58.394-71.015 99.789-132.183 105.129a16.37 16.37 0 0 1-2.047-.168c-78.817-8.063-138.59-74.711-138.063-153.934.531-79.227 61.196-145.07 140.11-152.074 61.168 5.34 113.214 46.734 132.183 105.133a17.162 17.162 0 0 1-8.105 20.308 81.265 81.265 0 0 1-20.992-9.133 42.176 42.176 0 0 0-30.125-5.035 34.298 34.298 0 0 0-4.18 1.11c-20.098 6.316-32.578 26.359-29.383 47.18 3.2 20.823 21.113 36.195 42.184 36.19a41.816 41.816 0 0 0 21.93-6.14 74.005 74.005 0 0 1 20.394-8.875c7.32 3.863 10.808 12.426 8.277 20.309zm0 0" fill="#795548"/><path d="M146.758 349.89c0 11.782-9.551 21.333-21.332 21.333s-21.332-9.551-21.332-21.332 9.55-21.336 21.332-21.336 21.332 9.554 21.332 21.336zm0 0" fill="#ffea3a"/><path d="M180.895 422.422c0 11.781-9.555 21.336-21.336 21.336s-21.332-9.555-21.332-21.336 9.55-21.332 21.332-21.332 21.336 9.55 21.336 21.332zm0 0" fill="#4cae50"/><path d="M257.691 448.023c0 11.782-9.55 21.332-21.332 21.332s-21.332-9.55-21.332-21.332 9.551-21.332 21.332-21.332 21.332 9.551 21.332 21.332zm0 0" fill="#fff"/><path d="M180.895 277.355c0 11.782-9.555 21.336-21.336 21.336s-21.332-9.554-21.332-21.336 9.55-21.332 21.332-21.332 21.336 9.551 21.336 21.332zm0 0" fill="#f34335"/><path d="M257.691 251.758c0 11.781-9.55 21.332-21.332 21.332s-21.332-9.55-21.332-21.332c0-11.785 9.551-21.336 21.332-21.336s21.332 9.55 21.332 21.336zm0 0" fill="#0377bb"/><path d="M503.477 82.54v199.08H435.21V82.54a103.938 103.938 0 0 1 13.824-51.2l7.508-13.398 2.305-4.093a13.017 13.017 0 0 1 20.992 0l9.812 17.492a103.896 103.896 0 0 1 13.825 51.2zm0 0" fill="#4e342e"/><path d="M477.879 82.54v199.08H435.21V82.54a103.938 103.938 0 0 1 13.824-51.2l7.508-13.398 7.512 13.399a103.938 103.938 0 0 1 13.824 51.2zm0 0" fill="#795548"/><path d="M502.285 503.488a157.363 157.363 0 0 1-35.16-18.176c-14.422-10.152-28.5-24.574-31.23-43.261-4.778-33.281 17.066-39.512 25.343-40.707a27.568 27.568 0 0 1 3.157-.254h22.187c25.77 23.297 17.152 37.203 6.23 51.2-13.652 17.41 9.473 51.198 9.473 51.198zm0 0" fill="#424242"/><path d="M467.21 452.29c-6.995 8.96-4.35 22.272-.085 33.022-14.422-10.152-28.5-24.574-31.23-43.261-4.778-33.281 17.066-39.512 25.343-40.707 25.43 23.129 16.895 37.035 5.973 50.945zm0 0" fill="#9d9d9d"/><path d="M469.344 128.023a8.532 8.532 0 0 0-8.531 8.532v93.867a8.533 8.533 0 1 0 17.066 0v-93.867a8.533 8.533 0 0 0-8.535-8.532zm0-42.668a8.533 8.533 0 0 0-8.531 8.536v8.53a8.533 8.533 0 1 0 17.066 0v-8.53a8.534 8.534 0 0 0-8.535-8.536zm0 0" fill="#805333"/><path d="M59.746 42.664a8.533 8.533 0 0 1-8.535 8.531 8.532 8.532 0 0 1-8.531-8.53 8.533 8.533 0 1 1 17.066 0zm34.133 0a8.533 8.533 0 0 1-8.535 8.531 8.532 8.532 0 0 1-8.531-8.53 8.533 8.533 0 1 1 17.066 0zm34.133 0a8.533 8.533 0 0 1-8.535 8.531 8.532 8.532 0 0 1-8.532-8.53 8.533 8.533 0 1 1 17.067 0zm238.933 0a8.533 8.533 0 0 1-8.535 8.531 8.532 8.532 0 0 1-8.531-8.53 8.533 8.533 0 1 1 17.066 0zM205.441 511.262a161.45 161.45 0 0 0 15.582.761c69.915.13 131.875-45 153.2-111.582a25.326 25.326 0 0 0-3.653-22.937 25.586 25.586 0 0 0-20.691-10.547h-2.383a75.952 75.952 0 0 0-40.105 12.16c-14.332 8.7-32.88 5.54-43.52-7.418a34.179 34.179 0 0 1-5.976-32.984 34.185 34.185 0 0 1 25.082-22.242 33.335 33.335 0 0 1 24.097 3.992 77.685 77.685 0 0 0 40.465 12.36h2.34a25.6 25.6 0 0 0 24.32-33.555c-17.683-54.872-63.379-96.086-119.777-108.032-56.399-11.949-114.879 7.2-153.29 50.192a163.501 163.501 0 0 0-40.37 126.918c8.472 75.804 68.777 135.375 144.68 142.914zm-91.578-258.465c34.336-38.438 86.625-55.559 137.047-44.871s91.266 47.547 107.059 96.61a8.536 8.536 0 0 1-1.176 7.679 8.554 8.554 0 0 1-6.914 3.543h-2.348a60.563 60.563 0 0 1-31.785-10.004 50.874 50.874 0 0 0-75.836 34.008 51.63 51.63 0 0 0 10.77 42.777c16.054 19.5 44.008 24.227 65.586 11.094a58.56 58.56 0 0 1 31.25-9.61h2.363a8.534 8.534 0 0 1 8.09 11.16c-18.59 55.704-69.067 94.594-127.668 98.36-58.598 3.77-113.64-28.336-139.211-81.2-25.567-52.863-16.563-115.945 22.773-159.546zm0 0"/><path d="M125.453 379.758c16.492 0 29.863-13.375 29.863-29.867 0-16.496-13.37-29.868-29.863-29.868-16.496 0-29.867 13.372-29.867 29.868 0 16.492 13.371 29.867 29.867 29.867zm0-42.668c7.067 0 12.797 5.73 12.797 12.8 0 7.067-5.73 12.801-12.797 12.801-7.07 0-12.8-5.734-12.8-12.8 0-7.07 5.73-12.801 12.8-12.801zm12.985 64.187c-11.66 11.664-11.66 30.575.003 42.239 11.664 11.66 30.575 11.66 42.239 0 11.66-11.664 11.664-30.575 0-42.239-11.68-11.632-30.563-11.632-42.243 0zm30.175 30.184c-5 4.996-13.101 4.992-18.101-.004-4.996-5-4.996-13.102 0-18.102 5-5 13.101-5 18.101-.003a12.805 12.805 0 0 1 0 18.11zm67.774 46.429c16.492 0 29.863-13.37 29.863-29.867 0-16.496-13.371-29.867-29.863-29.867-16.496 0-29.867 13.371-29.867 29.867 0 16.497 13.37 29.868 29.867 29.868zm0-42.667c7.066 0 12.797 5.73 12.797 12.8s-5.73 12.801-12.797 12.801c-7.07 0-12.801-5.73-12.801-12.8a12.799 12.799 0 0 1 12.8-12.8zM159.586 307.18c14.25-.008 26.508-10.086 29.277-24.063 2.77-13.98-4.722-27.969-17.894-33.406-13.172-5.441-28.352-.82-36.254 11.035-7.906 11.86-6.332 27.649 3.758 37.715a29.893 29.893 0 0 0 21.113 8.719zm-9.047-38.895c5-4.996 13.102-4.996 18.102.004 4.996 5 4.996 13.102 0 18.102-5 4.996-13.102 5-18.102.004a12.816 12.816 0 0 1-3.77-9.047 12.825 12.825 0 0 1 3.735-9.063zm85.848 13.336c16.492 0 29.863-13.371 29.863-29.863 0-16.496-13.371-29.867-29.863-29.867-16.496 0-29.867 13.37-29.867 29.867 0 16.492 13.37 29.863 29.867 29.863zm0-42.664c7.066 0 12.797 5.73 12.797 12.8 0 7.067-5.73 12.798-12.797 12.798-7.07 0-12.801-5.73-12.801-12.797a12.799 12.799 0 0 1 12.8-12.8zm0 0"/><path d="M32.02 357.059a8.535 8.535 0 0 0 8.226-2.29 8.534 8.534 0 0 0-3.96-14.25c-11.298-2.914-19.196-13.097-19.208-24.761V85.355h375.465v230.403c0 14.137-11.461 25.597-25.598 25.597a8.534 8.534 0 1 0 0 17.067c23.551-.027 42.637-19.113 42.668-42.664V42.69C409.582 19.137 390.496.051 366.945.023H42.68C19.125.051.04 19.137.012 42.691v273.067c.004 19.453 13.172 36.441 32.008 41.3zm10.66-339.97h324.265c14.137 0 25.598 11.462 25.598 25.602V68.29H17.078V42.691c0-14.14 11.461-25.601 25.602-25.601zM494.945 397.25v-54.715l16.743-58.601c.062-.395.093-.793.093-1.192a8.39 8.39 0 0 0 .23-1.12V82.558a111.793 111.793 0 0 0-14.898-55.399l-9.847-17.555a21.477 21.477 0 0 0-35.797 0l-9.89 17.555a111.752 111.752 0 0 0-14.9 55.399V281.62c.051.387.126.77.231 1.145 0 .402.031.8.094 1.195l16.742 58.574v56.32a34.187 34.187 0 0 0-7.867 6.622 45.453 45.453 0 0 0-8.426 37.8c6.606 45.621 69.438 67.414 72.11 68.27a8.535 8.535 0 0 0 9.539-2.93 8.535 8.535 0 0 0 .23-9.984c-6.398-9.324-17.23-31.64-9.805-41.106 12.11-15.425 22.485-34.054-4.582-60.277zm-48.418-107.094h45.637l-12.187 42.668H458.71zm-2.78-207.597a95.094 95.094 0 0 1 12.694-47.036l9.883-17.582a5.465 5.465 0 0 1 6.043 0l9.88 17.582a95.098 95.098 0 0 1 12.698 47.036v190.53h-51.199zm17.065 309.996V349.89h17.067v42.664zm25.286 54.468c-8.844 11.274-6.828 26.25-2.383 38.622-16.274-8.993-36.38-24.098-39.383-44.817a29.862 29.862 0 0 1 4.356-24.078 23.325 23.325 0 0 1 15.726-7.129h18.774c18.3 17.625 11.835 25.996 2.91 37.379zm0 0"/><path d="M469.344 128.023a8.532 8.532 0 0 0-8.531 8.532v93.867a8.533 8.533 0 1 0 17.066 0v-93.867a8.533 8.533 0 0 0-8.535-8.532zm0-42.668a8.533 8.533 0 0 0-8.531 8.536v8.53a8.533 8.533 0 1 0 17.066 0v-8.53a8.534 8.534 0 0 0-8.535-8.536zM349.879 204.824a8.533 8.533 0 1 0 0 17.067h8.531c9.426 0 17.067-7.641 17.067-17.067v-85.336c0-9.425-7.641-17.066-17.067-17.066H51.21c-9.425 0-17.065 7.64-17.065 17.066v85.336c0 9.426 7.64 17.067 17.066 17.067h42.668c4.71 0 8.531-3.82 8.531-8.536 0-4.71-3.82-8.53-8.531-8.53H51.21v-85.337h307.2v85.336zm0 0"/></svg>