<svg height="682.667" viewBox="0 0 512 512" width="682.667" xmlns="http://www.w3.org/2000/svg"><path d="M486.398 42.668v273.066H25.602V42.668c0-18.852 15.28-34.133 34.132-34.133h392.532a33.767 33.767 0 0 1 15.789 3.922 34.095 34.095 0 0 1 12.543 11.094 34.813 34.813 0 0 1 5.8 19.117zm0 0" fill="#9d9d9d"/><path d="M452.266 42.668v273.066H25.602V42.668c0-18.852 15.28-34.133 34.132-34.133h358.399a33.767 33.767 0 0 1 15.789 3.922 34.125 34.125 0 0 1 12.543 11.094 34.813 34.813 0 0 1 5.8 19.117zm0 0" fill="#ced7db"/><path d="M358.398 179.2h119.47c14.136 0 25.597 11.46 25.597 25.6v273.067c0 14.137-11.461 25.598-25.598 25.598H358.398c-14.136 0-25.597-11.461-25.597-25.598V204.801c0-14.14 11.46-25.602 25.597-25.602zm0 0" fill="#bdc3c7"/><path d="M349.867 179.2h119.465c14.14 0 25.602 11.46 25.602 25.6v273.067c0 14.137-11.461 25.598-25.602 25.598H349.867c-14.14 0-25.601-11.461-25.601-25.598V204.801c0-14.14 11.46-25.602 25.601-25.602zm0 0" fill="#37474f"/><path d="M349.867 179.2h93.867c14.137 0 25.598 11.46 25.598 25.6v273.067c0 14.137-11.46 25.598-25.598 25.598h-93.867c-14.14 0-25.601-11.461-25.601-25.598V204.801c0-14.14 11.46-25.602 25.601-25.602zm0 0" fill="#607d8a"/><path d="M230.398 307.2h119.47V384h-119.47zm0 0" fill="#37474f"/><path d="M443.734 119.465c0 28.277-22.925 51.203-51.199 51.203a52.763 52.763 0 0 1-12.8-1.621c-22.606-5.817-38.407-26.195-38.407-49.54 0-23.339 15.8-43.718 38.406-49.534a48.85 48.85 0 0 1 12.801-1.707c28.274 0 51.2 22.925 51.2 51.199zm-136.534 0c0 28.277-22.923 51.203-51.2 51.203a52.787 52.787 0 0 1-12.8-1.621c-22.606-5.817-38.407-26.195-38.407-49.54 0-23.339 15.8-43.718 38.406-49.534A48.85 48.85 0 0 1 256 68.266c28.277 0 51.2 22.925 51.2 51.199zm-136.532 0c0 28.277-22.926 51.203-51.203 51.203a52.756 52.756 0 0 1-12.797-1.621c-22.606-5.817-38.406-26.195-38.406-49.54 0-23.339 15.8-43.718 38.406-49.534a48.843 48.843 0 0 1 12.797-1.707c28.277 0 51.203 22.925 51.203 51.199zm0 0" fill="#fdc008"/><path d="M230.398 418.133h119.47v34.133h-119.47zm0 0" fill="#37474f"/><path d="M230.398 307.2H307.2V384h-76.8zm0 110.933H307.2v34.133h-76.8zm0 0" fill="#607d8a"/><path d="M303.36 274.516a4.87 4.87 0 0 0-1.45-.766 5.109 5.109 0 0 0-1.629-.512 7.224 7.224 0 0 0-3.32 0 5.424 5.424 0 0 0-1.535.512 6.715 6.715 0 0 0-1.547.766l-1.27 1.027a8.937 8.937 0 0 0-2.476 6.059 7.153 7.153 0 0 0 .683 3.242 8.188 8.188 0 0 0 7.852 5.289 8.984 8.984 0 0 0 6.059-2.473 8.815 8.815 0 0 0 1.789-2.816 8.507 8.507 0 0 0 .683-3.242 8.951 8.951 0 0 0-2.472-6.059 21.56 21.56 0 0 0-1.368-1.027zm-55.895-52.649h17.07a8.533 8.533 0 0 0 8.531-8.535c0-4.71-3.82-8.531-8.53-8.531h-17.071a8.532 8.532 0 0 0-8.531 8.531 8.533 8.533 0 0 0 8.53 8.535zm51.203 0h34.133c4.71 0 8.531-3.82 8.531-8.535 0-4.71-3.82-8.531-8.531-8.531h-34.133a8.533 8.533 0 1 0 0 17.066zm-25.602 17.067h-25.601a8.532 8.532 0 0 0-8.531 8.53 8.533 8.533 0 0 0 8.53 8.536h25.602a8.534 8.534 0 1 0 0-17.066zm59.734 0h-25.6a8.532 8.532 0 0 0-8.532 8.53 8.533 8.533 0 0 0 8.531 8.536h25.602c4.71 0 8.531-3.82 8.531-8.535a8.532 8.532 0 0 0-8.531-8.531zm-68.265 34.132h-17.07a8.533 8.533 0 0 0-8.531 8.536c0 4.71 3.82 8.53 8.53 8.53h17.071a8.533 8.533 0 0 0 0-17.066zm0 0" fill="#e6e7e8"/><path d="M332.8 230.398v221.868h170.665V230.398zm0 0" fill="#ced7db"/><path d="M366.934 392.535h59.734c4.71 0 8.531-3.824 8.531-8.535s-3.82-8.535-8.531-8.535h-59.734a8.536 8.536 0 0 0 0 17.07zm93.866 0h8.532a8.536 8.536 0 0 0 0-17.07h-8.531a8.536 8.536 0 0 0 0 17.07zm-85.335 17.067h-8.531a8.533 8.533 0 1 0 0 17.066h8.53a8.534 8.534 0 1 0 0-17.066zm93.867 17.066a8.534 8.534 0 1 0 0-17.066h-59.73a8.533 8.533 0 1 0 0 17.066" fill="#e6e7e8"/><path d="M460.8 307.2a42.518 42.518 0 0 1-12.46 30.206 42.518 42.518 0 0 1-30.207 12.461 45.544 45.544 0 0 1-12.801-1.879 42.81 42.81 0 0 1-17.406-70.996 43.956 43.956 0 0 1 17.406-10.582 45.54 45.54 0 0 1 12.8-1.875 42.53 42.53 0 0 1 30.208 12.457A42.525 42.525 0 0 1 460.8 307.2zm0 0" fill="#fdc008"/><path d="M426.668 486.398v17.067h-17.066v-17.067c0-4.71 3.82-8.53 8.53-8.53a8.533 8.533 0 0 1 8.536 8.53zm0 0" fill="#7f8c8d"/><path d="M418.133 119.465c-.055 23.332-15.824 43.691-38.399 49.582-22.605-5.817-38.406-26.195-38.406-49.54 0-23.339 15.8-43.718 38.406-49.534 22.575 5.828 38.364 26.175 38.399 49.492zm-136.531 0c-.055 23.332-15.829 43.691-38.403 49.582-22.605-5.817-38.406-26.195-38.406-49.54 0-23.339 15.8-43.718 38.406-49.534 22.578 5.828 38.363 26.175 38.403 49.492zm-136.536 0c-.054 23.332-15.824 43.691-38.398 49.582-22.606-5.817-38.406-26.195-38.406-49.54 0-23.339 15.8-43.718 38.406-49.534 22.574 5.828 38.363 26.175 38.398 49.492zM435.2 307.2a42.837 42.837 0 0 1-12.458 30.206 43.925 43.925 0 0 1-17.41 10.582 42.81 42.81 0 0 1-17.406-70.996 43.956 43.956 0 0 1 17.406-10.582 43.97 43.97 0 0 1 17.41 10.582A42.841 42.841 0 0 1 435.2 307.2zm0 0" fill="#ffea3a"/><path d="M221.867 384h76.801v25.602h-76.8zm0 0" fill="#37474f"/><path d="M34.133 145.066h187.734c14.137 0 25.598 11.461 25.598 25.602v307.2c0 14.136-11.461 25.597-25.598 25.597H34.133c-14.137 0-25.598-11.461-25.598-25.598V170.668c0-14.14 11.461-25.602 25.598-25.602zm0 0" fill="#bdc3c7"/><path d="M25.602 145.066h187.73c14.14 0 25.602 11.461 25.602 25.602v307.2c0 14.136-11.461 25.597-25.602 25.597H25.602C11.46 503.465 0 492.004 0 477.867V170.668c0-14.14 11.46-25.602 25.602-25.602zm0 0" fill="#37474f"/><path d="M25.602 145.066h162.132c14.137 0 25.598 11.461 25.598 25.602v307.2c0 14.136-11.46 25.597-25.598 25.597H25.602C11.46 503.465 0 492.004 0 477.867V170.668c0-14.14 11.46-25.602 25.602-25.602zm0 0" fill="#607d8a"/><path d="M247.125 196.266H8.535v256h238.93v-256zm0 0" fill="#ced7db"/><path d="M119.465 503.465v-17.067c0-4.71 3.824-8.53 8.535-8.53s8.535 3.82 8.535 8.53v17.067zm0 0" fill="#7f8c8d"/><path d="M102.398 358.398h-59.73a8.533 8.533 0 1 1 0-17.066h59.73a8.534 8.534 0 1 1 0 17.066zm110.934 0h-8.531a8.533 8.533 0 1 1 0-17.066h8.531a8.534 8.534 0 1 1 0 17.066zm-42.664 0h-34.133a8.533 8.533 0 1 1 0-17.066h34.133c4.71 0 8.531 3.82 8.531 8.535a8.532 8.532 0 0 1-8.531 8.531zM51.2 392.535h-8.532a8.536 8.536 0 0 1 0-17.07h8.531a8.536 8.536 0 0 1 0 17.07zm34.132 0c-4.71 0-8.531-3.824-8.531-8.535s3.82-8.535 8.531-8.535h128a8.536 8.536 0 0 1 0 17.07m-59.73 34.133h-8.536a8.533 8.533 0 0 1-8.53-8.535 8.531 8.531 0 0 1 8.53-8.531h8.536c4.71 0 8.53 3.82 8.53 8.53a8.533 8.533 0 0 1-8.53 8.536zm-42.668 0H42.668a8.534 8.534 0 1 1 0-17.066h68.266c4.71 0 8.53 3.82 8.53 8.53a8.533 8.533 0 0 1-8.53 8.536zm0 0" fill="#e6e7e8"/><path d="M110.934 281.602c0 18.851-15.282 34.132-34.133 34.132A32.094 32.094 0 0 1 64 313.172a34.025 34.025 0 0 1-21.332-31.57A34.026 34.026 0 0 1 64 250.027a32.094 32.094 0 0 1 12.8-2.562 34.138 34.138 0 0 1 34.134 34.137zm102.398 0c0 18.851-15.281 34.132-34.133 34.132a32.107 32.107 0 0 1-12.8-2.562 34.03 34.03 0 0 1 0-63.145 32.107 32.107 0 0 1 12.8-2.562 34.132 34.132 0 0 1 34.133 34.137zm0 0" fill="#fdc008"/><path d="M85.332 281.602c0-17.438-9.55-31.575-21.332-31.575s-21.332 14.137-21.332 31.575 9.55 31.57 21.332 31.57 21.332-14.133 21.332-31.57zm102.402 0c0-17.438-9.55-31.575-21.336-31.575-11.78 0-21.332 14.137-21.332 31.575s9.551 31.57 21.332 31.57c11.786 0 21.336-14.133 21.336-31.57zm0 0" fill="#ffea3a"/><path d="M290.816 284.816a8.19 8.19 0 0 0 7.852 5.317 8.984 8.984 0 0 0 6.059-2.473 8.815 8.815 0 0 0 1.789-2.816 8.507 8.507 0 0 0 .683-3.242 8.932 8.932 0 0 0-2.472-6.051c-.43-.352-.856-.692-1.368-1.035a4.87 4.87 0 0 0-1.449-.766 4.999 4.999 0 0 0-1.629-.504 7.017 7.017 0 0 0-3.32 0 5.064 5.064 0 0 0-1.535.504 6.715 6.715 0 0 0-1.547.766l-1.27 1.035a8.9 8.9 0 0 0-2.476 6.05 7.142 7.142 0 0 0 .683 3.215zm76.118 107.719h59.734c4.71 0 8.531-3.824 8.531-8.535s-3.82-8.535-8.531-8.535h-59.734a8.536 8.536 0 0 0 0 17.07zm93.866-17.07a8.536 8.536 0 0 0 0 17.07h8.532a8.536 8.536 0 0 0 0-17.07zm-85.335 34.137h-8.531a8.533 8.533 0 1 0 0 17.066h8.53a8.534 8.534 0 1 0 0-17.066zm93.867 0h-59.73a8.533 8.533 0 1 0 0 17.066h59.73a8.534 8.534 0 1 0 0-17.066zm0 0"/><path d="M494.934 175.395V42.668C494.906 19.113 475.82.028 452.266 0H59.734C36.18.027 17.094 19.113 17.066 42.668v98.594A34.012 34.012 0 0 0 0 170.668v307.2C0 496.717 15.281 512 34.133 512h187.734C240.72 512 256 496.719 256 477.867v-17.066h68.266v17.066c0 18.852 15.28 34.133 34.132 34.133h119.47c18.85 0 34.132-15.281 34.132-34.133V204.801a34.016 34.016 0 0 0-17.066-29.406zM17.066 204.8h221.868v238.933H17.066zM256 392.535h34.133v17.067H256zm51.2 0h17.066v17.067h-17.067zm17.066-17.07H256v-51.2h68.266zM256 426.668h68.266v17.066H256zm85.332-187.734h153.602v204.8H341.332zm0-17.067v-17.066c0-9.426 7.64-17.067 17.066-17.067h119.47c9.425 0 17.066 7.641 17.066 17.067v17.066zM34.132 42.668c0-14.14 11.462-25.602 25.602-25.602h392.532c14.14 0 25.601 11.461 25.601 25.602v128H358.398c-18.851 0-34.132 15.281-34.132 34.133h-25.598a8.533 8.533 0 1 0 0 17.066h25.598v17.067h-17.067a8.532 8.532 0 0 0-8.531 8.53 8.533 8.533 0 0 0 8.531 8.536h17.067v51.2H256v-17.067h8.535a8.532 8.532 0 0 0 8.531-8.531 8.533 8.533 0 0 0-8.53-8.536H256V256h17.066a8.534 8.534 0 1 0 0-17.066H256v-17.067h8.535a8.533 8.533 0 0 0 8.531-8.535c0-4.71-3.82-8.531-8.53-8.531H256v-34.133c0-18.852-15.281-34.133-34.133-34.133H34.133zm0 110.934h187.735c9.426 0 17.067 7.64 17.067 17.066v17.066H17.066v-17.066c0-9.426 7.641-17.066 17.067-17.066zm187.735 341.332h-85.332v-8.536c0-4.71-3.824-8.53-8.535-8.53s-8.535 3.82-8.535 8.53v8.536H34.133c-9.426 0-17.067-7.641-17.067-17.067v-17.066h221.868v17.066c0 9.426-7.641 17.067-17.067 17.067zm256 0h-51.199v-8.536c0-4.71-3.82-8.53-8.535-8.53a8.532 8.532 0 0 0-8.531 8.53v8.536h-51.204c-9.425 0-17.066-7.641-17.066-17.067v-17.066h153.602v17.066c0 9.426-7.641 17.067-17.067 17.067zm0 0"/><path d="M119.465 59.734c-29.172-.074-54.098 21.004-58.88 49.782a8.535 8.535 0 0 0 7.02 9.699c4.598.773 8.965-2.281 9.81-6.863 3.448-20.551 21.237-35.606 42.077-35.606s38.63 15.055 42.078 35.606a8.533 8.533 0 0 0 16.828-2.836c-4.78-28.797-29.738-49.88-58.933-49.782zM256 76.8c19.309 0 36.215 12.97 41.21 31.622 4.997 18.652-3.155 38.34-19.878 47.992a8.527 8.527 0 0 0-4.574 7.45 8.536 8.536 0 0 0 4.37 7.566 8.541 8.541 0 0 0 8.74-.25c24.034-13.864 35.359-42.446 27.343-69.008-8.02-26.559-33.27-44.106-60.957-42.352-27.691 1.75-50.527 22.336-55.133 49.696a8.53 8.53 0 0 0 7.02 9.699 8.535 8.535 0 0 0 9.808-6.863C217.371 91.8 235.168 76.754 256 76.8zm162.133 281.598c28.277 0 51.199-22.921 51.199-51.199 0-28.277-22.922-51.199-51.2-51.199-28.277 0-51.198 22.922-51.198 51.2.03 28.265 22.937 51.167 51.199 51.198zm0-85.332c18.851 0 34.133 15.282 34.133 34.133 0 18.852-15.282 34.133-34.133 34.133-18.852 0-34.133-15.281-34.133-34.133 0-18.851 15.281-34.133 34.133-34.133zm-65.606-120.652a8.535 8.535 0 0 0 3.953-5.203 8.535 8.535 0 0 0-.886-6.469 42.237 42.237 0 0 1-5.727-21.277c0-23.563 19.102-42.664 42.668-42.664 23.563 0 42.664 19.101 42.664 42.664a42.244 42.244 0 0 1-5.726 21.293 8.533 8.533 0 1 0 14.738 8.574c14.55-25.102 8.96-57.027-13.254-75.691-22.215-18.664-54.629-18.664-76.848 0-22.214 18.664-27.804 50.59-13.254 75.691a8.54 8.54 0 0 0 5.2 3.961 8.524 8.524 0 0 0 6.472-.879zM42.668 358.398h59.73a8.533 8.533 0 1 0 0-17.066h-59.73a8.534 8.534 0 1 0 0 17.066zm170.664-17.066h-8.531a8.534 8.534 0 1 0 0 17.066h8.531a8.533 8.533 0 1 0 0-17.066zm-76.797 17.066h34.133a8.533 8.533 0 0 0 0-17.066h-34.133a8.534 8.534 0 1 0 0 17.066zm-93.867 34.137h8.531a8.536 8.536 0 0 0 0-17.07h-8.531a8.536 8.536 0 0 0 0 17.07zm170.664-17.07h-128c-4.71 0-8.531 3.824-8.531 8.535s3.82 8.535 8.531 8.535h128a8.536 8.536 0 0 0 0-17.07zm-59.73 34.137h-8.536a8.532 8.532 0 0 0-8.53 8.53 8.533 8.533 0 0 0 8.53 8.536h8.536c4.71 0 8.53-3.82 8.53-8.535a8.531 8.531 0 0 0-8.53-8.531zm-42.668 0H42.668a8.533 8.533 0 1 0 0 17.066h68.266c4.71 0 8.53-3.82 8.53-8.535a8.531 8.531 0 0 0-8.53-8.531zM76.8 324.266c23.563 0 42.665-19.102 42.665-42.664 0-23.567-19.102-42.668-42.664-42.668-23.567 0-42.668 19.101-42.668 42.668.027 23.55 19.113 42.636 42.668 42.664zm0-68.266c14.138 0 25.598 11.46 25.598 25.602 0 14.136-11.46 25.597-25.597 25.597-14.14 0-25.602-11.46-25.602-25.597C51.2 267.46 62.66 256 76.801 256zm102.4 68.266c23.566 0 42.667-19.102 42.667-42.664 0-23.567-19.101-42.668-42.668-42.668-23.562 0-42.664 19.101-42.664 42.668.028 23.55 19.113 42.636 42.664 42.664zm0-68.266c14.14 0 25.6 11.46 25.6 25.602 0 14.136-11.46 25.597-25.6 25.597-14.137 0-25.598-11.46-25.598-25.597 0-14.141 11.46-25.602 25.597-25.602zm0 0"/></svg>