<svg height="512pt" viewBox="0 -13 512 512" width="512pt" xmlns="http://www.w3.org/2000/svg"><path d="M503.465 93.867v324.266c0 18.851-15.281 34.133-34.133 34.133H42.668c-18.852 0-34.133-15.282-34.133-34.133V93.867zm0 0" fill="#9d9d9d"/><path d="M477.867 93.867v324.266c0 18.851-15.281 34.133-34.133 34.133H42.668c-18.852 0-34.133-15.282-34.133-34.133V93.867zm0 0" fill="#ced7db"/><path d="M503.465 42.668v68.266H8.535V42.668c0-18.852 15.281-34.133 34.133-34.133h426.664c18.852 0 34.133 15.281 34.133 34.133zm0 0" fill="#00828e"/><path d="M477.867 42.668v68.266H8.535V42.668c0-18.852 15.281-34.133 34.133-34.133h401.066c18.852 0 34.133 15.281 34.133 34.133zm0 0" fill="#00bbd3"/><path d="M76.8 59.734c0 9.426-7.64 17.067-17.066 17.067s-17.066-7.64-17.066-17.067 7.64-17.066 17.066-17.066 17.067 7.64 17.067 17.066zm0 0" fill="#f34335"/><path d="M145.066 59.734c0 9.426-7.64 17.067-17.066 17.067s-17.066-7.64-17.066-17.067 7.64-17.066 17.066-17.066 17.066 7.64 17.066 17.066zm0 0" fill="#ffea3a"/><path d="M213.332 59.734c0 9.426-7.64 17.067-17.066 17.067s-17.067-7.64-17.067-17.067 7.64-17.066 17.067-17.066 17.066 7.64 17.066 17.066zm0 0" fill="#4cae50"/><path d="M366.934 68.266h-85.332a8.533 8.533 0 1 1 0-17.067h85.332c4.71 0 8.53 3.82 8.53 8.535a8.532 8.532 0 0 1-8.53 8.532zm0 0" fill="#955ba5"/><path d="M82.832 139.035a8.532 8.532 0 0 0-12.066 0l-25.598 25.598a8.532 8.532 0 0 0 0 12.066l25.598 25.602a8.534 8.534 0 0 0 12.066-12.066l-19.566-19.567 19.566-19.566a8.532 8.532 0 0 0 0-12.067zm102.402 25.598l-25.601-25.598a8.534 8.534 0 0 0-12.067 12.067l19.567 19.566-19.567 19.566a8.528 8.528 0 0 0 3.77 14.39 8.528 8.528 0 0 0 8.297-2.323l25.601-25.602a8.54 8.54 0 0 0 0-12.066zm-53.421-27.203a8.523 8.523 0 0 0-6.516-.461 8.524 8.524 0 0 0-4.934 4.285l-25.601 51.2a8.534 8.534 0 0 0 3.824 11.448 8.535 8.535 0 0 0 11.453-3.82l25.598-51.2a8.534 8.534 0 0 0-3.825-11.452zm0 0" fill="#2fa8cc"/><path d="M256 153.602h-42.668a8.532 8.532 0 0 0-8.531 8.53 8.533 8.533 0 0 0 8.531 8.536H256c4.71 0 8.535-3.82 8.535-8.535 0-4.711-3.824-8.531-8.535-8.531zm42.668 0h-8.535a8.532 8.532 0 0 0-8.531 8.53 8.533 8.533 0 0 0 8.53 8.536h8.536c4.71 0 8.531-3.82 8.531-8.535a8.532 8.532 0 0 0-8.531-8.531zm-85.336 59.73h17.066a8.533 8.533 0 1 0 0-17.066h-17.066a8.533 8.533 0 0 0-8.531 8.535c0 4.71 3.82 8.531 8.531 8.531zM51.2 256h25.6a8.533 8.533 0 0 0 8.532-8.535 8.532 8.532 0 0 0-8.531-8.531H51.199a8.532 8.532 0 0 0-8.531 8.53A8.533 8.533 0 0 0 51.199 256zm59.734 0h68.265a8.534 8.534 0 1 0 0-17.066h-68.265a8.533 8.533 0 1 0 0 17.066zm136.531-17.066h-34.133a8.532 8.532 0 0 0-8.531 8.53 8.533 8.533 0 0 0 8.531 8.536h34.133a8.534 8.534 0 1 0 0-17.066zM76.8 324.266H51.2a8.533 8.533 0 0 0-8.532 8.535c0 4.71 3.82 8.531 8.531 8.531h25.602c4.71 0 8.531-3.82 8.531-8.531a8.533 8.533 0 0 0-8.531-8.535zm102.4 0h-68.266a8.534 8.534 0 1 0 0 17.066h68.265a8.533 8.533 0 1 0 0-17.066zm68.265 0h-34.133a8.533 8.533 0 0 0-8.531 8.535c0 4.71 3.82 8.531 8.531 8.531h34.133a8.533 8.533 0 1 0 0-17.066zm0-42.664h-68.266a8.532 8.532 0 0 0-8.531 8.53 8.533 8.533 0 0 0 8.531 8.536h68.266a8.534 8.534 0 1 0 0-17.066zM51.2 298.668h93.866a8.534 8.534 0 1 0 0-17.066H51.2a8.532 8.532 0 0 0-8.531 8.53 8.533 8.533 0 0 0 8.531 8.536zm0 0" fill="#3f5c6c"/><path d="M298.668 256h187.73v68.266h-187.73zm0 110.934h187.73v51.199h-187.73zm0 0" fill="#37474f"/><path d="M298.668 256h162.133v68.266H298.668zm0 110.934h162.133v51.199H298.668zm0 0" fill="#607d8a"/><path d="M298.668 204.8h187.73c9.426 0 17.067 7.641 17.067 17.067V256c0 9.426-7.64 17.066-17.067 17.066h-187.73c-9.426 0-17.066-7.64-17.066-17.066v-34.133c0-9.426 7.64-17.066 17.066-17.066zm0 102.4h187.73c9.426 0 17.067 7.64 17.067 17.066v34.132c0 9.426-7.64 17.067-17.067 17.067h-187.73c-9.426 0-17.066-7.64-17.066-17.067v-34.132c0-9.426 7.64-17.067 17.066-17.067zm0 102.402h187.73c9.426 0 17.067 7.64 17.067 17.066v34.133c0 9.426-7.64 17.066-17.067 17.066h-187.73c-9.426 0-17.066-7.64-17.066-17.066v-34.133c0-9.426 7.64-17.066 17.066-17.066zm0 0" fill="#00828e"/><path d="M298.668 204.8h162.133c9.426 0 17.066 7.641 17.066 17.067V256c0 9.426-7.64 17.066-17.066 17.066H298.668c-9.426 0-17.066-7.64-17.066-17.066v-34.133c0-9.426 7.64-17.066 17.066-17.066zm0 102.4h162.133c9.426 0 17.066 7.64 17.066 17.066v34.132c0 9.426-7.64 17.067-17.066 17.067H298.668c-9.426 0-17.066-7.64-17.066-17.067v-34.132c0-9.426 7.64-17.067 17.066-17.067zm0 102.402h162.133c9.426 0 17.066 7.64 17.066 17.066v34.133c0 9.426-7.64 17.066-17.066 17.066H298.668c-9.426 0-17.066-7.64-17.066-17.066v-34.133c0-9.426 7.64-17.066 17.066-17.066zm0 0" fill="#00bbd3"/><path d="M324.266 247.465h-8.532a8.533 8.533 0 1 1 0-17.067h8.532a8.534 8.534 0 1 1 0 17.067zm0 0" fill="#f0c419"/><path d="M358.398 247.465a8.445 8.445 0 0 1-8.21-6.86 8.444 8.444 0 0 1 5.101-9.406 8.447 8.447 0 1 1 9.168 13.793 8.951 8.951 0 0 1-6.059 2.473zm0 0" fill="#14a085"/><path d="M469.332 247.465h-76.797a8.533 8.533 0 1 1 0-17.067h76.797a8.534 8.534 0 1 1 0 17.067zm0 0" fill="#bdc3c7"/><path d="M324.266 349.867h-8.532a8.534 8.534 0 1 1 0-17.066h8.532a8.533 8.533 0 1 1 0 17.066zm0 0" fill="#f0c419"/><path d="M358.398 349.867a8.536 8.536 0 0 1-6.059-14.594 9.909 9.909 0 0 1 2.817-1.789 8.847 8.847 0 0 1 9.301 1.79 8.532 8.532 0 0 1-6.059 14.593zm0 0" fill="#14a085"/><path d="M469.332 349.867h-76.797a8.534 8.534 0 1 1 0-17.066h76.797a8.533 8.533 0 1 1 0 17.066zm0 0" fill="#bdc3c7"/><path d="M324.266 452.266h-8.532a8.533 8.533 0 1 1 0-17.067h8.532a8.534 8.534 0 1 1 0 17.067zm0 0" fill="#f0c419"/><path d="M358.398 452.266a8.445 8.445 0 0 1-8.21-6.86 8.442 8.442 0 0 1 5.101-9.406 8.447 8.447 0 0 1 9.168 13.793 8.951 8.951 0 0 1-6.059 2.473zm0 0" fill="#14a085"/><path d="M469.332 452.266h-76.797a8.533 8.533 0 1 1 0-17.067h76.797a8.534 8.534 0 1 1 0 17.067zm0 0" fill="#bdc3c7"/><path d="M59.734 34.133c-14.14 0-25.601 11.46-25.601 25.601 0 14.137 11.46 25.598 25.601 25.598 14.137 0 25.598-11.46 25.598-25.598 0-14.14-11.46-25.601-25.598-25.601zm0 34.133a8.533 8.533 0 1 1 0-17.067 8.533 8.533 0 0 1 8.532 8.535 8.533 8.533 0 0 1-8.532 8.532zM128 34.133c-14.137 0-25.602 11.46-25.602 25.601 0 14.137 11.465 25.598 25.602 25.598s25.602-11.46 25.602-25.598c0-14.14-11.465-25.601-25.602-25.601zm0 34.133c-4.71 0-8.535-3.82-8.535-8.532a8.536 8.536 0 0 1 17.07 0c0 4.711-3.824 8.532-8.535 8.532zm68.266-34.133c-14.137 0-25.598 11.46-25.598 25.601 0 14.137 11.46 25.598 25.598 25.598 14.14 0 25.601-11.46 25.601-25.598 0-14.14-11.46-25.601-25.601-25.601zm0 34.133a8.532 8.532 0 0 1-8.532-8.532 8.533 8.533 0 1 1 17.067 0 8.533 8.533 0 0 1-8.535 8.532zM366.934 51.2h-85.332a8.534 8.534 0 1 0 0 17.066h85.332c4.71 0 8.53-3.82 8.53-8.532a8.533 8.533 0 0 0-8.53-8.535zm93.866 0h-59.734a8.533 8.533 0 0 0-8.53 8.534 8.532 8.532 0 0 0 8.53 8.532h59.735c4.71 0 8.531-3.82 8.531-8.532a8.533 8.533 0 0 0-8.531-8.535zm0 0"/><path d="M469.332 0H42.668C19.113.027.028 19.113 0 42.668v375.465c.027 23.554 19.113 42.64 42.668 42.668h204.797a8.534 8.534 0 1 0 0-17.067H42.668c-14.14 0-25.602-11.46-25.602-25.601V119.465h477.868v51.203a8.533 8.533 0 0 0 17.066 0v-128C511.973 19.113 492.887.028 469.332 0zM17.066 102.398v-59.73c0-14.14 11.461-25.602 25.602-25.602h426.664c14.14 0 25.602 11.461 25.602 25.602v59.73zm0 0"/><path d="M82.832 139.016a8.532 8.532 0 0 0-12.066 0l-25.598 25.601a8.532 8.532 0 0 0 0 12.067l25.598 25.597a8.538 8.538 0 0 0 11.964-.101 8.538 8.538 0 0 0 .102-11.965l-19.566-19.547 19.566-19.566a8.539 8.539 0 0 0 0-12.086zm64.734 63.265a8.532 8.532 0 0 0 12.067 0l25.601-25.597a8.54 8.54 0 0 0 0-12.067l-25.601-25.601a8.528 8.528 0 0 0-8.297-2.325 8.528 8.528 0 0 0-3.77 14.391l19.567 19.586-19.567 19.566a8.53 8.53 0 0 0 0 12.047zm-15.753-64.894a8.536 8.536 0 0 0-11.45 3.813l-25.601 51.202a8.523 8.523 0 0 0-.461 6.516 8.525 8.525 0 0 0 4.285 4.934 8.42 8.42 0 0 0 3.812.949 8.534 8.534 0 0 0 7.68-4.719l25.602-51.2a8.533 8.533 0 0 0-3.868-11.495zM256 153.602h-42.668a8.532 8.532 0 0 0-8.531 8.53 8.533 8.533 0 0 0 8.531 8.536H256c4.71 0 8.535-3.82 8.535-8.535 0-4.711-3.824-8.531-8.535-8.531zm42.668 17.066c4.71 0 8.531-3.82 8.531-8.535a8.532 8.532 0 0 0-8.531-8.531h-8.535a8.532 8.532 0 0 0-8.531 8.53 8.533 8.533 0 0 0 8.53 8.536zm-85.336 42.664h17.066a8.533 8.533 0 1 0 0-17.066h-17.066a8.533 8.533 0 0 0-8.531 8.535c0 4.71 3.82 8.531 8.531 8.531zM51.2 256h25.6a8.533 8.533 0 0 0 8.532-8.535 8.532 8.532 0 0 0-8.531-8.531H51.199a8.532 8.532 0 0 0-8.531 8.53A8.533 8.533 0 0 0 51.199 256zm51.198-8.535a8.534 8.534 0 0 0 8.536 8.535h68.265a8.534 8.534 0 1 0 0-17.066h-68.265a8.533 8.533 0 0 0-8.536 8.53zm145.067-8.531h-34.133a8.532 8.532 0 0 0-8.531 8.53 8.533 8.533 0 0 0 8.531 8.536h34.133a8.534 8.534 0 1 0 0-17.066zM51.2 324.266a8.533 8.533 0 0 0-8.532 8.535c0 4.71 3.82 8.531 8.531 8.531h25.602c4.71 0 8.531-3.82 8.531-8.531a8.533 8.533 0 0 0-8.531-8.535zm59.734 17.066h68.265a8.533 8.533 0 1 0 0-17.066h-68.265a8.534 8.534 0 1 0 0 17.066zm136.531-17.066h-34.133a8.533 8.533 0 0 0-8.531 8.535c0 4.71 3.82 8.531 8.531 8.531h34.133a8.533 8.533 0 1 0 0-17.066zm0-42.664h-68.266a8.532 8.532 0 0 0-8.531 8.53 8.533 8.533 0 0 0 8.531 8.536h68.266a8.534 8.534 0 1 0 0-17.066zm-93.863 8.531c0-4.711-3.82-8.531-8.536-8.531H51.2a8.532 8.532 0 0 0-8.531 8.53 8.533 8.533 0 0 0 8.531 8.536h93.867a8.534 8.534 0 0 0 8.536-8.535zm332.796-93.867h-187.73c-14.14 0-25.602 11.46-25.602 25.601V256a25.595 25.595 0 0 0 17.067 24.02v20.218a25.6 25.6 0 0 0-17.067 24.028v34.132a25.6 25.6 0 0 0 17.067 24.024v20.215a25.6 25.6 0 0 0-17.067 24.031v34.133c0 14.136 11.461 25.597 25.602 25.597h187.73c14.141 0 25.602-11.46 25.602-25.597v-34.133a25.595 25.595 0 0 0-17.066-24.031v-20.235A25.595 25.595 0 0 0 512 358.398v-34.132a25.594 25.594 0 0 0-17.066-24.028v-20.234A25.598 25.598 0 0 0 512 256v-34.133c0-14.14-11.46-25.601-25.602-25.601zm-8.53 102.402h-170.67v-17.066h170.668zm0 102.398h-170.67V384h170.668zm17.066 59.735c0 4.71-3.82 8.531-8.536 8.531h-187.73a8.533 8.533 0 0 1-8.535-8.531v-34.133a8.534 8.534 0 0 1 8.535-8.535h187.73a8.534 8.534 0 0 1 8.536 8.535zm-8.536-93.867h-187.73a8.534 8.534 0 0 1-8.535-8.536v-34.132a8.533 8.533 0 0 1 8.535-8.532h187.73a8.533 8.533 0 0 1 8.536 8.532v34.132a8.534 8.534 0 0 1-8.536 8.536zM494.934 256c0 4.71-3.82 8.535-8.536 8.535h-187.73a8.536 8.536 0 0 1-8.535-8.535v-34.133a8.534 8.534 0 0 1 8.535-8.535h187.73a8.534 8.534 0 0 1 8.536 8.535zm0 0"/><path d="M324.266 230.398h-8.532a8.534 8.534 0 1 0 0 17.067h8.532a8.533 8.533 0 1 0 0-17.067zm28.074 2.477a8.811 8.811 0 0 0-2.473 6.059 8.984 8.984 0 0 0 2.473 6.058 9.922 9.922 0 0 0 2.816 1.793 8.503 8.503 0 0 0 3.242.68 8.447 8.447 0 0 0 8.536-8.531 8.797 8.797 0 0 0-2.477-6.059 8.937 8.937 0 0 0-12.117 0zm116.992-2.477h-76.797a8.534 8.534 0 1 0 0 17.067h76.797a8.533 8.533 0 1 0 0-17.067zM324.266 332.8h-8.532a8.533 8.533 0 1 0 0 17.067h8.532a8.534 8.534 0 1 0 0-17.066zm30.89.598a10.163 10.163 0 0 0-2.816 1.875 8.818 8.818 0 0 0-2.473 6.059 8.533 8.533 0 1 0 17.067 0 8.804 8.804 0 0 0-2.477-6.059 8.712 8.712 0 0 0-9.3-1.875zm114.176-.598h-76.797a8.533 8.533 0 1 0 0 17.067h76.797a8.534 8.534 0 1 0 0-17.066zM324.266 435.2h-8.532a8.534 8.534 0 1 0 0 17.066h8.532a8.533 8.533 0 1 0 0-17.067zm28.074 2.476a8.811 8.811 0 0 0-2.473 6.058 8.984 8.984 0 0 0 2.473 6.059 9.922 9.922 0 0 0 2.816 1.793 8.577 8.577 0 0 0 3.242.68 8.447 8.447 0 0 0 8.536-8.532 8.797 8.797 0 0 0-2.477-6.058 8.929 8.929 0 0 0-12.117 0zm116.992-2.476h-76.797a8.534 8.534 0 1 0 0 17.066h76.797a8.533 8.533 0 1 0 0-17.067zm0 0"/></svg>